<svg width="162" height="92" viewBox="0 0 162 92" fill="none" xmlns="http://www.w3.org/2000/svg">
<rect width="162" height="92" rx="10" fill="white" fill-opacity="0.01"/>
<rect width="162" height="92" rx="10" fill="url(#paint0_radial_1194_4189)" fill-opacity="0.12"/>
<rect x="0.5" y="0.5" width="161" height="91" rx="9.5" stroke="white" stroke-opacity="0.06"/>
<rect x="0.5" y="0.5" width="161" height="91" rx="9.5" stroke="url(#paint1_radial_1194_4189)" stroke-opacity="0.12"/>
<path d="M56.46 29C57.3133 29 58.0227 29.1493 58.588 29.448C59.164 29.7467 59.6173 30.1573 59.948 30.68C60.2893 31.192 60.5293 31.784 60.668 32.456C60.8173 33.128 60.892 33.832 60.892 34.568V35.336C60.892 37.1813 60.4333 38.6053 59.516 39.608C58.5987 40.6 57.2707 41.096 55.532 41.096C55.116 41.096 54.764 41.0853 54.476 41.064C54.188 41.0427 53.8733 41.0107 53.532 40.968V39.656C53.884 39.6987 54.2093 39.7307 54.508 39.752C54.8067 39.7733 55.1693 39.784 55.596 39.784C56.5667 39.784 57.3347 39.6027 57.9 39.24C58.4653 38.8773 58.8707 38.36 59.116 37.688C59.3613 37.0053 59.484 36.184 59.484 35.224V34.504L59.868 33.08C59.8573 33.9227 59.692 34.6213 59.372 35.176C59.0627 35.7307 58.6307 36.1467 58.076 36.424C57.532 36.7013 56.9027 36.84 56.188 36.84C55.356 36.84 54.652 36.6747 54.076 36.344C53.5 36.0027 53.0627 35.5387 52.764 34.952C52.476 34.3653 52.332 33.6987 52.332 32.952C52.332 32.1947 52.4867 31.5173 52.796 30.92C53.1053 30.3227 53.564 29.8533 54.172 29.512C54.7907 29.1707 55.5533 29 56.46 29ZM56.46 30.344C55.8733 30.344 55.3827 30.456 54.988 30.68C54.5933 30.904 54.2947 31.2133 54.092 31.608C53.9 31.992 53.804 32.44 53.804 32.952C53.804 33.464 53.9 33.9173 54.092 34.312C54.284 34.7067 54.5667 35.016 54.94 35.24C55.324 35.4533 55.7933 35.56 56.348 35.56C56.892 35.56 57.3773 35.4587 57.804 35.256C58.2413 35.0533 58.5827 34.76 58.828 34.376C59.0733 33.9813 59.196 33.5013 59.196 32.936C59.196 32.4667 59.1 32.0347 58.908 31.64C58.716 31.2453 58.4173 30.9307 58.012 30.696C57.6067 30.4613 57.0893 30.344 56.46 30.344ZM66.6869 29C67.5402 29 68.2495 29.1493 68.8149 29.448C69.3909 29.7467 69.8442 30.1573 70.1749 30.68C70.5162 31.192 70.7562 31.784 70.8949 32.456C71.0442 33.128 71.1189 33.832 71.1189 34.568V35.336C71.1189 37.1813 70.6602 38.6053 69.7429 39.608C68.8255 40.6 67.4975 41.096 65.7589 41.096C65.3429 41.096 64.9909 41.0853 64.7029 41.064C64.4149 41.0427 64.1002 41.0107 63.7589 40.968V39.656C64.1109 39.6987 64.4362 39.7307 64.7349 39.752C65.0335 39.7733 65.3962 39.784 65.8229 39.784C66.7935 39.784 67.5615 39.6027 68.1269 39.24C68.6922 38.8773 69.0975 38.36 69.3429 37.688C69.5882 37.0053 69.7109 36.184 69.7109 35.224V34.504L70.0949 33.08C70.0842 33.9227 69.9189 34.6213 69.5989 35.176C69.2895 35.7307 68.8575 36.1467 68.3029 36.424C67.7589 36.7013 67.1295 36.84 66.4149 36.84C65.5829 36.84 64.8789 36.6747 64.3029 36.344C63.7269 36.0027 63.2895 35.5387 62.9909 34.952C62.7029 34.3653 62.5589 33.6987 62.5589 32.952C62.5589 32.1947 62.7135 31.5173 63.0229 30.92C63.3322 30.3227 63.7909 29.8533 64.3989 29.512C65.0175 29.1707 65.7802 29 66.6869 29ZM66.6869 30.344C66.1002 30.344 65.6095 30.456 65.2149 30.68C64.8202 30.904 64.5215 31.2133 64.3189 31.608C64.1269 31.992 64.0309 32.44 64.0309 32.952C64.0309 33.464 64.1269 33.9173 64.3189 34.312C64.5109 34.7067 64.7935 35.016 65.1669 35.24C65.5509 35.4533 66.0202 35.56 66.5749 35.56C67.1189 35.56 67.6042 35.4587 68.0309 35.256C68.4682 35.0533 68.8095 34.76 69.0549 34.376C69.3002 33.9813 69.4229 33.5013 69.4229 32.936C69.4229 32.4667 69.3269 32.0347 69.1349 31.64C68.9429 31.2453 68.6442 30.9307 68.2389 30.696C67.8335 30.4613 67.3162 30.344 66.6869 30.344ZM73.1218 41V39.048H74.9778V41H73.1218ZM80.7813 29C81.6346 29 82.3439 29.1493 82.9093 29.448C83.4853 29.7467 83.9386 30.1573 84.2693 30.68C84.6106 31.192 84.8506 31.784 84.9893 32.456C85.1386 33.128 85.2133 33.832 85.2133 34.568V35.336C85.2133 37.1813 84.7546 38.6053 83.8373 39.608C82.9199 40.6 81.5919 41.096 79.8533 41.096C79.4373 41.096 79.0853 41.0853 78.7973 41.064C78.5093 41.0427 78.1946 41.0107 77.8533 40.968V39.656C78.2053 39.6987 78.5306 39.7307 78.8293 39.752C79.1279 39.7733 79.4906 39.784 79.9173 39.784C80.8879 39.784 81.6559 39.6027 82.2213 39.24C82.7866 38.8773 83.1919 38.36 83.4373 37.688C83.6826 37.0053 83.8053 36.184 83.8053 35.224V34.504L84.1893 33.08C84.1786 33.9227 84.0133 34.6213 83.6933 35.176C83.3839 35.7307 82.9519 36.1467 82.3973 36.424C81.8533 36.7013 81.2239 36.84 80.5093 36.84C79.6773 36.84 78.9733 36.6747 78.3973 36.344C77.8213 36.0027 77.3839 35.5387 77.0853 34.952C76.7973 34.3653 76.6533 33.6987 76.6533 32.952C76.6533 32.1947 76.8079 31.5173 77.1173 30.92C77.4266 30.3227 77.8853 29.8533 78.4933 29.512C79.1119 29.1707 79.8746 29 80.7813 29ZM80.7813 30.344C80.1946 30.344 79.7039 30.456 79.3093 30.68C78.9146 30.904 78.6159 31.2133 78.4133 31.608C78.2213 31.992 78.1253 32.44 78.1253 32.952C78.1253 33.464 78.2213 33.9173 78.4133 34.312C78.6053 34.7067 78.8879 35.016 79.2613 35.24C79.6453 35.4533 80.1146 35.56 80.6693 35.56C81.2133 35.56 81.6986 35.4587 82.1253 35.256C82.5626 35.0533 82.9039 34.76 83.1493 34.376C83.3946 33.9813 83.5173 33.5013 83.5173 32.936C83.5173 32.4667 83.4213 32.0347 83.2293 31.64C83.0373 31.2453 82.7386 30.9307 82.3333 30.696C81.9279 30.4613 81.4106 30.344 80.7813 30.344ZM91.0081 29C91.8615 29 92.5708 29.1493 93.1361 29.448C93.7121 29.7467 94.1655 30.1573 94.4961 30.68C94.8375 31.192 95.0775 31.784 95.2161 32.456C95.3655 33.128 95.4401 33.832 95.4401 34.568V35.336C95.4401 37.1813 94.9815 38.6053 94.0641 39.608C93.1468 40.6 91.8188 41.096 90.0801 41.096C89.6641 41.096 89.3121 41.0853 89.0241 41.064C88.7361 41.0427 88.4215 41.0107 88.0801 40.968V39.656C88.4321 39.6987 88.7575 39.7307 89.0561 39.752C89.3548 39.7733 89.7175 39.784 90.1441 39.784C91.1148 39.784 91.8828 39.6027 92.4481 39.24C93.0135 38.8773 93.4188 38.36 93.6641 37.688C93.9095 37.0053 94.0321 36.184 94.0321 35.224V34.504L94.4161 33.08C94.4055 33.9227 94.2401 34.6213 93.9201 35.176C93.6108 35.7307 93.1788 36.1467 92.6241 36.424C92.0801 36.7013 91.4508 36.84 90.7361 36.84C89.9041 36.84 89.2001 36.6747 88.6241 36.344C88.0481 36.0027 87.6108 35.5387 87.3121 34.952C87.0241 34.3653 86.8801 33.6987 86.8801 32.952C86.8801 32.1947 87.0348 31.5173 87.3441 30.92C87.6535 30.3227 88.1121 29.8533 88.7201 29.512C89.3388 29.1707 90.1015 29 91.0081 29ZM91.0081 30.344C90.4215 30.344 89.9308 30.456 89.5361 30.68C89.1415 30.904 88.8428 31.2133 88.6401 31.608C88.4481 31.992 88.3521 32.44 88.3521 32.952C88.3521 33.464 88.4481 33.9173 88.6401 34.312C88.8321 34.7067 89.1148 35.016 89.4881 35.24C89.8721 35.4533 90.3415 35.56 90.8961 35.56C91.4401 35.56 91.9255 35.4587 92.3521 35.256C92.7895 35.0533 93.1308 34.76 93.3761 34.376C93.6215 33.9813 93.7441 33.5013 93.7441 32.936C93.7441 32.4667 93.6481 32.0347 93.4561 31.64C93.2641 31.2453 92.9655 30.9307 92.5601 30.696C92.1548 30.4613 91.6375 30.344 91.0081 30.344ZM100.291 41L104.707 29.32H105.923L101.507 41H100.291ZM99.427 35.592C98.819 35.592 98.323 35.4533 97.939 35.176C97.5657 34.8987 97.2883 34.5307 97.107 34.072C96.9363 33.6133 96.851 33.1173 96.851 32.584V32.168C96.851 31.592 96.9417 31.08 97.123 30.632C97.3043 30.1733 97.587 29.816 97.971 29.56C98.355 29.2933 98.8403 29.16 99.427 29.16C100.024 29.16 100.51 29.2933 100.883 29.56C101.267 29.816 101.55 30.1733 101.731 30.632C101.912 31.08 102.003 31.592 102.003 32.168V32.584C102.003 33.1173 101.912 33.6133 101.731 34.072C101.56 34.5307 101.288 34.8987 100.915 35.176C100.542 35.4533 100.046 35.592 99.427 35.592ZM99.427 34.536C99.9177 34.536 100.28 34.36 100.515 34.008C100.76 33.6453 100.883 33.1067 100.883 32.392C100.883 31.6347 100.76 31.0853 100.515 30.744C100.27 30.392 99.907 30.216 99.427 30.216C98.947 30.216 98.5843 30.392 98.339 30.744C98.0937 31.0853 97.971 31.6293 97.971 32.376C97.971 33.0907 98.0883 33.6293 98.323 33.992C98.5683 34.3547 98.9363 34.536 99.427 34.536ZM106.723 41.16C106.115 41.16 105.619 41.0213 105.235 40.744C104.862 40.4667 104.584 40.0987 104.403 39.64C104.232 39.1813 104.147 38.6853 104.147 38.152V37.736C104.147 37.16 104.238 36.648 104.419 36.2C104.6 35.7413 104.883 35.384 105.267 35.128C105.651 34.8613 106.136 34.728 106.723 34.728C107.32 34.728 107.806 34.8613 108.179 35.128C108.563 35.384 108.846 35.7413 109.027 36.2C109.208 36.648 109.299 37.16 109.299 37.736V38.152C109.299 38.6853 109.208 39.1813 109.027 39.64C108.856 40.0987 108.584 40.4667 108.211 40.744C107.838 41.0213 107.342 41.16 106.723 41.16ZM106.723 40.104C107.214 40.104 107.576 39.928 107.811 39.576C108.056 39.2133 108.179 38.6747 108.179 37.96C108.179 37.2027 108.056 36.6533 107.811 36.312C107.566 35.96 107.203 35.784 106.723 35.784C106.243 35.784 105.88 35.96 105.635 36.312C105.39 36.6533 105.267 37.1973 105.267 37.944C105.267 38.6587 105.384 39.1973 105.619 39.56C105.864 39.9227 106.232 40.104 106.723 40.104Z" fill="url(#paint2_linear_1194_4189)"/>
<path d="M33.738 63.224C32.758 63.224 31.9973 63.014 31.456 62.594C30.924 62.174 30.6487 61.6 30.63 60.872H31.89C31.9087 61.1613 32.0533 61.4367 32.324 61.698C32.604 61.95 33.0753 62.076 33.738 62.076C34.3353 62.076 34.7927 61.9593 35.11 61.726C35.4273 61.4833 35.586 61.1893 35.586 60.844C35.586 60.536 35.4693 60.298 35.236 60.13C35.0027 59.9527 34.6247 59.836 34.102 59.78L33.29 59.696C32.5807 59.6213 32.002 59.4113 31.554 59.066C31.106 58.7113 30.882 58.2167 30.882 57.582C30.882 57.106 31.0033 56.7 31.246 56.364C31.4887 56.0187 31.8247 55.7573 32.254 55.58C32.6833 55.3933 33.178 55.3 33.738 55.3C34.578 55.3 35.2593 55.4867 35.782 55.86C36.3047 56.2333 36.5753 56.7887 36.594 57.526H35.334C35.3247 57.2273 35.1847 56.9753 34.914 56.77C34.6527 56.5553 34.2607 56.448 33.738 56.448C33.2153 56.448 32.8187 56.5553 32.548 56.77C32.2773 56.9847 32.142 57.2553 32.142 57.582C32.142 57.862 32.2353 58.086 32.422 58.254C32.618 58.422 32.9353 58.5293 33.374 58.576L34.186 58.66C34.9887 58.744 35.6327 58.968 36.118 59.332C36.6033 59.6867 36.846 60.1907 36.846 60.844C36.846 61.3107 36.7107 61.726 36.44 62.09C36.1787 62.4447 35.8147 62.7247 35.348 62.93C34.8813 63.126 34.3447 63.224 33.738 63.224ZM37.9552 65.912V64.708H39.0332C39.3505 64.708 39.6165 64.666 39.8312 64.582C40.0552 64.5073 40.2372 64.3767 40.3772 64.19C40.5265 64.0033 40.6478 63.756 40.7412 63.448L43.0932 55.524H44.4092L41.9172 63.798C41.7678 64.2927 41.5578 64.694 41.2872 65.002C41.0165 65.3193 40.6852 65.548 40.2932 65.688C39.9105 65.8373 39.4625 65.912 38.9492 65.912H37.9552ZM40.2372 62.832V61.712H41.8612V62.832H40.2372ZM40.0972 62.832L37.4232 55.524H38.7952L41.3572 62.832H40.0972ZM48.2307 63.224C47.2507 63.224 46.4901 63.014 45.9487 62.594C45.4167 62.174 45.1414 61.6 45.1227 60.872H46.3827C46.4014 61.1613 46.5461 61.4367 46.8167 61.698C47.0967 61.95 47.5681 62.076 48.2307 62.076C48.8281 62.076 49.2854 61.9593 49.6027 61.726C49.9201 61.4833 50.0787 61.1893 50.0787 60.844C50.0787 60.536 49.9621 60.298 49.7287 60.13C49.4954 59.9527 49.1174 59.836 48.5947 59.78L47.7827 59.696C47.0734 59.6213 46.4947 59.4113 46.0467 59.066C45.5987 58.7113 45.3747 58.2167 45.3747 57.582C45.3747 57.106 45.4961 56.7 45.7387 56.364C45.9814 56.0187 46.3174 55.7573 46.7467 55.58C47.1761 55.3933 47.6707 55.3 48.2307 55.3C49.0707 55.3 49.7521 55.4867 50.2747 55.86C50.7974 56.2333 51.0681 56.7887 51.0867 57.526H49.8267C49.8174 57.2273 49.6774 56.9753 49.4067 56.77C49.1454 56.5553 48.7534 56.448 48.2307 56.448C47.7081 56.448 47.3114 56.5553 47.0407 56.77C46.7701 56.9847 46.6347 57.2553 46.6347 57.582C46.6347 57.862 46.7281 58.086 46.9147 58.254C47.1107 58.422 47.4281 58.5293 47.8667 58.576L48.6787 58.66C49.4814 58.744 50.1254 58.968 50.6107 59.332C51.0961 59.6867 51.3387 60.1907 51.3387 60.844C51.3387 61.3107 51.2034 61.726 50.9327 62.09C50.6714 62.4447 50.3074 62.7247 49.8407 62.93C49.3741 63.126 48.8374 63.224 48.2307 63.224ZM55.9186 63.084C55.3586 63.084 54.8733 63.0047 54.4626 62.846C54.0613 62.6873 53.7486 62.4167 53.5246 62.034C53.3099 61.642 53.2026 61.1147 53.2026 60.452V53.256H54.4906V60.62C54.4906 61.0213 54.5979 61.334 54.8126 61.558C55.0366 61.7727 55.3493 61.88 55.7506 61.88H57.0666V63.084H55.9186ZM51.9146 56.532V55.524H57.0666V56.532H51.9146ZM61.8108 63.252C61.1575 63.252 60.5928 63.14 60.1168 62.916C59.6408 62.692 59.2535 62.398 58.9548 62.034C58.6562 61.6607 58.4322 61.2453 58.2828 60.788C58.1428 60.3307 58.0728 59.864 58.0728 59.388V59.136C58.0728 58.6507 58.1428 58.1793 58.2828 57.722C58.4322 57.2647 58.6562 56.854 58.9548 56.49C59.2535 56.1167 59.6315 55.8227 60.0888 55.608C60.5555 55.384 61.1015 55.272 61.7268 55.272C62.5388 55.272 63.2062 55.4493 63.7288 55.804C64.2608 56.1493 64.6528 56.5973 64.9048 57.148C65.1662 57.6987 65.2968 58.2867 65.2968 58.912V59.514H58.6608V58.506H64.3168L64.0088 59.052C64.0088 58.52 63.9248 58.0627 63.7568 57.68C63.5888 57.288 63.3368 56.9847 63.0008 56.77C62.6648 56.5553 62.2402 56.448 61.7268 56.448C61.1948 56.448 60.7515 56.5693 60.3968 56.812C60.0515 57.0547 59.7902 57.386 59.6128 57.806C59.4448 58.226 59.3608 58.7113 59.3608 59.262C59.3608 59.794 59.4448 60.2747 59.6128 60.704C59.7902 61.124 60.0608 61.46 60.4248 61.712C60.7888 61.9547 61.2508 62.076 61.8108 62.076C62.3988 62.076 62.8748 61.9453 63.2388 61.684C63.6122 61.4227 63.8362 61.1193 63.9108 60.774H65.1708C65.0682 61.2873 64.8628 61.7307 64.5548 62.104C64.2468 62.4773 63.8595 62.762 63.3928 62.958C62.9262 63.154 62.3988 63.252 61.8108 63.252ZM66.9251 63V55.524H67.9891V58.73H67.8211C67.8211 58.002 67.9144 57.386 68.1011 56.882C68.2971 56.3687 68.5864 55.9767 68.9691 55.706C69.3518 55.4353 69.8371 55.3 70.4251 55.3H70.4811C71.0691 55.3 71.5544 55.4353 71.9371 55.706C72.3291 55.9767 72.6184 56.3687 72.8051 56.882C72.9918 57.386 73.0851 58.002 73.0851 58.73H72.6931C72.6931 58.002 72.7911 57.386 72.9871 56.882C73.1831 56.3687 73.4724 55.9767 73.8551 55.706C74.2471 55.4353 74.7371 55.3 75.3251 55.3H75.3811C75.9691 55.3 76.4591 55.4353 76.8511 55.706C77.2431 55.9767 77.5324 56.3687 77.7191 56.882C77.9151 57.386 78.0131 58.002 78.0131 58.73V63H76.6691V58.436C76.6691 57.8293 76.5198 57.3627 76.2211 57.036C75.9224 56.7 75.5071 56.532 74.9751 56.532C74.4244 56.532 73.9811 56.7093 73.6451 57.064C73.3091 57.4093 73.1411 57.8947 73.1411 58.52V63H71.7971V58.436C71.7971 57.8293 71.6478 57.3627 71.3491 57.036C71.0504 56.7 70.6351 56.532 70.1031 56.532C69.5524 56.532 69.1091 56.7093 68.7731 57.064C68.4371 57.4093 68.2691 57.8947 68.2691 58.52V63H66.9251ZM85.6895 63.224C84.8028 63.224 84.1215 62.9347 83.6455 62.356C83.1695 61.7773 82.9315 60.942 82.9315 59.85V55.51H84.2755V60.116C84.2755 60.704 84.4342 61.166 84.7515 61.502C85.0688 61.8287 85.4982 61.992 86.0395 61.992C86.5995 61.992 87.0568 61.8147 87.4115 61.46C87.7662 61.096 87.9435 60.6013 87.9435 59.976V55.51H89.2875V63H88.2235V59.794H88.3915C88.3915 60.5313 88.2935 61.1567 88.0975 61.67C87.9015 62.174 87.6075 62.5613 87.2155 62.832C86.8328 63.0933 86.3428 63.224 85.7455 63.224H85.6895ZM91.6105 65.8V55.524H92.6745V58.758L92.4225 58.73C92.4692 57.9273 92.6372 57.274 92.9265 56.77C93.2252 56.2567 93.6125 55.8787 94.0885 55.636C94.5645 55.3933 95.0825 55.272 95.6425 55.272C96.1838 55.272 96.6738 55.3747 97.1125 55.58C97.5605 55.7853 97.9432 56.0653 98.2605 56.42C98.5778 56.7747 98.8205 57.1853 98.9885 57.652C99.1565 58.1187 99.2405 58.6133 99.2405 59.136V59.388C99.2405 59.9107 99.1518 60.4053 98.9745 60.872C98.7972 61.3387 98.5452 61.7493 98.2185 62.104C97.9012 62.4587 97.5185 62.7387 97.0705 62.944C96.6318 63.1493 96.1465 63.252 95.6145 63.252C95.0825 63.252 94.5738 63.1353 94.0885 62.902C93.6032 62.6687 93.2018 62.2907 92.8845 61.768C92.5672 61.2453 92.3852 60.5593 92.3385 59.71L92.9545 60.83V65.8H91.6105ZM95.4045 62.076C95.9085 62.076 96.3472 61.9593 96.7205 61.726C97.0938 61.4833 97.3832 61.152 97.5885 60.732C97.7938 60.3027 97.8965 59.8127 97.8965 59.262C97.8965 58.702 97.7938 58.212 97.5885 57.792C97.3832 57.372 97.0938 57.0453 96.7205 56.812C96.3472 56.5693 95.9085 56.448 95.4045 56.448C94.9565 56.448 94.5412 56.5507 94.1585 56.756C93.7758 56.952 93.4678 57.2413 93.2345 57.624C93.0105 57.9973 92.8985 58.45 92.8985 58.982V59.626C92.8985 60.1393 93.0152 60.578 93.2485 60.942C93.4818 61.306 93.7898 61.586 94.1725 61.782C94.5552 61.978 94.9658 62.076 95.4045 62.076ZM103.895 63.084C103.335 63.084 102.85 63.0047 102.439 62.846C102.038 62.6873 101.725 62.4167 101.501 62.034C101.286 61.642 101.179 61.1147 101.179 60.452V53.256H102.467V60.62C102.467 61.0213 102.574 61.334 102.789 61.558C103.013 61.7727 103.326 61.88 103.727 61.88H105.043V63.084H103.895ZM99.8908 56.532V55.524H105.043V56.532H99.8908ZM107.028 63V55.524H108.372V63H107.028ZM105.88 56.588V55.524H108.372V56.588H105.88ZM107.406 54.32C107.107 54.32 106.883 54.2407 106.734 54.082C106.594 53.9233 106.524 53.7227 106.524 53.48C106.524 53.2373 106.594 53.0367 106.734 52.878C106.883 52.7193 107.107 52.64 107.406 52.64C107.704 52.64 107.924 52.7193 108.064 52.878C108.213 53.0367 108.288 53.2373 108.288 53.48C108.288 53.7227 108.213 53.9233 108.064 54.082C107.924 54.2407 107.704 54.32 107.406 54.32ZM110.69 63V55.524H111.754V58.73H111.586C111.586 58.002 111.68 57.386 111.866 56.882C112.062 56.3687 112.352 55.9767 112.734 55.706C113.117 55.4353 113.602 55.3 114.19 55.3H114.246C114.834 55.3 115.32 55.4353 115.702 55.706C116.094 55.9767 116.384 56.3687 116.57 56.882C116.757 57.386 116.85 58.002 116.85 58.73H116.458C116.458 58.002 116.556 57.386 116.752 56.882C116.948 56.3687 117.238 55.9767 117.62 55.706C118.012 55.4353 118.502 55.3 119.09 55.3H119.146C119.734 55.3 120.224 55.4353 120.616 55.706C121.008 55.9767 121.298 56.3687 121.484 56.882C121.68 57.386 121.778 58.002 121.778 58.73V63H120.434V58.436C120.434 57.8293 120.285 57.3627 119.986 57.036C119.688 56.7 119.272 56.532 118.74 56.532C118.19 56.532 117.746 56.7093 117.41 57.064C117.074 57.4093 116.906 57.8947 116.906 58.52V63H115.562V58.436C115.562 57.8293 115.413 57.3627 115.114 57.036C114.816 56.7 114.4 56.532 113.868 56.532C113.318 56.532 112.874 56.7093 112.538 57.064C112.202 57.4093 112.034 57.8947 112.034 58.52V63H110.69ZM127.137 63.252C126.484 63.252 125.919 63.14 125.443 62.916C124.967 62.692 124.58 62.398 124.281 62.034C123.983 61.6607 123.759 61.2453 123.609 60.788C123.469 60.3307 123.399 59.864 123.399 59.388V59.136C123.399 58.6507 123.469 58.1793 123.609 57.722C123.759 57.2647 123.983 56.854 124.281 56.49C124.58 56.1167 124.958 55.8227 125.415 55.608C125.882 55.384 126.428 55.272 127.053 55.272C127.865 55.272 128.533 55.4493 129.055 55.804C129.587 56.1493 129.979 56.5973 130.231 57.148C130.493 57.6987 130.623 58.2867 130.623 58.912V59.514H123.987V58.506H129.643L129.335 59.052C129.335 58.52 129.251 58.0627 129.083 57.68C128.915 57.288 128.663 56.9847 128.327 56.77C127.991 56.5553 127.567 56.448 127.053 56.448C126.521 56.448 126.078 56.5693 125.723 56.812C125.378 57.0547 125.117 57.386 124.939 57.806C124.771 58.226 124.687 58.7113 124.687 59.262C124.687 59.794 124.771 60.2747 124.939 60.704C125.117 61.124 125.387 61.46 125.751 61.712C126.115 61.9547 126.577 62.076 127.137 62.076C127.725 62.076 128.201 61.9453 128.565 61.684C128.939 61.4227 129.163 61.1193 129.237 60.774H130.497C130.395 61.2873 130.189 61.7307 129.881 62.104C129.573 62.4773 129.186 62.762 128.719 62.958C128.253 63.154 127.725 63.252 127.137 63.252Z" fill="white" fill-opacity="0.5"/>
<defs>
<radialGradient id="paint0_radial_1194_4189" cx="0" cy="0" r="1" gradientUnits="userSpaceOnUse" gradientTransform="translate(81) rotate(90) scale(92 81)">
<stop stop-color="white"/>
<stop offset="1" stop-color="white" stop-opacity="0"/>
</radialGradient>
<radialGradient id="paint1_radial_1194_4189" cx="0" cy="0" r="1" gradientUnits="userSpaceOnUse" gradientTransform="translate(81) rotate(90) scale(68.1154 75.1824)">
<stop stop-color="white"/>
<stop offset="1" stop-color="white" stop-opacity="0"/>
</radialGradient>
<linearGradient id="paint2_linear_1194_4189" x1="81" y1="24" x2="81" y2="48" gradientUnits="userSpaceOnUse">
<stop offset="0.0885417" stop-color="white" stop-opacity="0.72"/>
<stop offset="1" stop-color="white"/>
</linearGradient>
</defs>
</svg>
