<svg width="162" height="92" viewBox="0 0 162 92" fill="none" xmlns="http://www.w3.org/2000/svg">
<rect width="162" height="92" rx="10" fill="white" fill-opacity="0.01"/>
<rect width="162" height="92" rx="10" fill="url(#paint0_radial_1194_4186)" fill-opacity="0.12"/>
<rect x="0.5" y="0.5" width="161" height="91" rx="9.5" stroke="white" stroke-opacity="0.06"/>
<rect x="0.5" y="0.5" width="161" height="91" rx="9.5" stroke="url(#paint1_radial_1194_4186)" stroke-opacity="0.12"/>
<path d="M51.264 41V30.088L51.968 30.632H48.672V29.32H52.8V41H51.264ZM60.3507 41.288C59.4761 41.288 58.7294 41.1387 58.1107 40.84C57.5027 40.5307 57.0068 40.1147 56.6228 39.592C56.2494 39.0693 55.9774 38.4667 55.8067 37.784C55.6361 37.0907 55.5507 36.36 55.5507 35.592V34.728C55.5507 33.6507 55.7161 32.68 56.0467 31.816C56.3881 30.952 56.9107 30.2693 57.6147 29.768C58.3294 29.256 59.2414 29 60.3507 29C61.4601 29 62.3668 29.256 63.0708 29.768C63.7748 30.2693 64.2921 30.952 64.6228 31.816C64.9641 32.68 65.1347 33.6507 65.1347 34.728V35.592C65.1347 36.36 65.0494 37.0907 64.8788 37.784C64.7081 38.4667 64.4308 39.0693 64.0468 39.592C63.6734 40.1147 63.1828 40.5307 62.5748 40.84C61.9668 41.1387 61.2254 41.288 60.3507 41.288ZM60.3507 39.88C61.4601 39.88 62.2708 39.5067 62.7828 38.76C63.3054 38.0027 63.5668 36.808 63.5668 35.176C63.5668 33.4693 63.3001 32.248 62.7667 31.512C62.2441 30.776 61.4388 30.408 60.3507 30.408C59.2521 30.408 58.4361 30.776 57.9028 31.512C57.3801 32.248 57.1187 33.4587 57.1187 35.144C57.1187 36.7867 57.3801 37.9867 57.9028 38.744C58.4254 39.5013 59.2414 39.88 60.3507 39.88ZM67.6174 43.512L66.3854 43.048L67.8734 38.92L69.1374 39.4L67.6174 43.512ZM75.7889 41.288C74.9142 41.288 74.1675 41.1387 73.5489 40.84C72.9409 40.5307 72.4449 40.1147 72.0609 39.592C71.6875 39.0693 71.4155 38.4667 71.2449 37.784C71.0742 37.0907 70.9889 36.36 70.9889 35.592V34.728C70.9889 33.6507 71.1542 32.68 71.4849 31.816C71.8262 30.952 72.3489 30.2693 73.0529 29.768C73.7675 29.256 74.6795 29 75.7889 29C76.8982 29 77.8049 29.256 78.5089 29.768C79.2129 30.2693 79.7302 30.952 80.0609 31.816C80.4022 32.68 80.5729 33.6507 80.5729 34.728V35.592C80.5729 36.36 80.4875 37.0907 80.3169 37.784C80.1462 38.4667 79.8689 39.0693 79.4849 39.592C79.1115 40.1147 78.6209 40.5307 78.0129 40.84C77.4049 41.1387 76.6635 41.288 75.7889 41.288ZM75.7889 39.88C76.8982 39.88 77.7089 39.5067 78.2209 38.76C78.7435 38.0027 79.0049 36.808 79.0049 35.176C79.0049 33.4693 78.7382 32.248 78.2049 31.512C77.6822 30.776 76.8769 30.408 75.7889 30.408C74.6902 30.408 73.8742 30.776 73.3409 31.512C72.8182 32.248 72.5569 33.4587 72.5569 35.144C72.5569 36.7867 72.8182 37.9867 73.3409 38.744C73.8635 39.5013 74.6795 39.88 75.7889 39.88ZM87.3595 41.288C86.4848 41.288 85.7382 41.1387 85.1195 40.84C84.5115 40.5307 84.0155 40.1147 83.6315 39.592C83.2582 39.0693 82.9862 38.4667 82.8155 37.784C82.6448 37.0907 82.5595 36.36 82.5595 35.592V34.728C82.5595 33.6507 82.7248 32.68 83.0555 31.816C83.3968 30.952 83.9195 30.2693 84.6235 29.768C85.3382 29.256 86.2502 29 87.3595 29C88.4688 29 89.3755 29.256 90.0795 29.768C90.7835 30.2693 91.3008 30.952 91.6315 31.816C91.9728 32.68 92.1435 33.6507 92.1435 34.728V35.592C92.1435 36.36 92.0582 37.0907 91.8875 37.784C91.7168 38.4667 91.4395 39.0693 91.0555 39.592C90.6822 40.1147 90.1915 40.5307 89.5835 40.84C88.9755 41.1387 88.2342 41.288 87.3595 41.288ZM87.3595 39.88C88.4688 39.88 89.2795 39.5067 89.7915 38.76C90.3142 38.0027 90.5755 36.808 90.5755 35.176C90.5755 33.4693 90.3088 32.248 89.7755 31.512C89.2528 30.776 88.4475 30.408 87.3595 30.408C86.2608 30.408 85.4448 30.776 84.9115 31.512C84.3888 32.248 84.1275 33.4587 84.1275 35.144C84.1275 36.7867 84.3888 37.9867 84.9115 38.744C85.4342 39.5013 86.2502 39.88 87.3595 39.88ZM98.9301 41.288C98.0555 41.288 97.3088 41.1387 96.6901 40.84C96.0821 40.5307 95.5861 40.1147 95.2021 39.592C94.8288 39.0693 94.5568 38.4667 94.3861 37.784C94.2155 37.0907 94.1301 36.36 94.1301 35.592V34.728C94.1301 33.6507 94.2955 32.68 94.6261 31.816C94.9675 30.952 95.4901 30.2693 96.1941 29.768C96.9088 29.256 97.8208 29 98.9301 29C100.039 29 100.946 29.256 101.65 29.768C102.354 30.2693 102.871 30.952 103.202 31.816C103.543 32.68 103.714 33.6507 103.714 34.728V35.592C103.714 36.36 103.629 37.0907 103.458 37.784C103.287 38.4667 103.01 39.0693 102.626 39.592C102.253 40.1147 101.762 40.5307 101.154 40.84C100.546 41.1387 99.8048 41.288 98.9301 41.288ZM98.9301 39.88C100.039 39.88 100.85 39.5067 101.362 38.76C101.885 38.0027 102.146 36.808 102.146 35.176C102.146 33.4693 101.879 32.248 101.346 31.512C100.823 30.776 100.018 30.408 98.9301 30.408C97.8315 30.408 97.0155 30.776 96.4821 31.512C95.9595 32.248 95.6981 33.4587 95.6981 35.144C95.6981 36.7867 95.9595 37.9867 96.4821 38.744C97.0048 39.5013 97.8208 39.88 98.9301 39.88ZM108.613 39.304V31.688H109.925V39.304H108.613ZM105.605 36.104V34.888H112.933V36.104H105.605Z" fill="url(#paint2_linear_1194_4186)"/>
<path d="M43.616 65.912C43.2707 65.912 42.9207 65.898 42.566 65.87C42.2207 65.842 41.8893 65.8047 41.572 65.758V64.624C41.908 64.6707 42.258 64.708 42.622 64.736C42.9953 64.7733 43.3453 64.792 43.672 64.792C44.3533 64.792 44.8947 64.6987 45.296 64.512C45.7067 64.3347 46.0007 64.05 46.178 63.658C46.3647 63.2753 46.458 62.7807 46.458 62.174V60.746L46.906 59.682C46.878 60.438 46.7193 61.068 46.43 61.572C46.1407 62.0667 45.7627 62.44 45.296 62.692C44.8387 62.9347 44.33 63.056 43.77 63.056C43.2473 63.056 42.7667 62.958 42.328 62.762C41.8987 62.5567 41.5253 62.2767 41.208 61.922C40.9 61.5673 40.6573 61.1613 40.48 60.704C40.312 60.2373 40.228 59.7473 40.228 59.234V58.982C40.228 58.4593 40.3167 57.974 40.494 57.526C40.6713 57.0687 40.9187 56.672 41.236 56.336C41.5533 56 41.9313 55.7387 42.37 55.552C42.818 55.3653 43.308 55.272 43.84 55.272C44.4653 55.272 45.016 55.4073 45.492 55.678C45.968 55.9393 46.3413 56.3267 46.612 56.84C46.892 57.344 47.046 57.9647 47.074 58.702L46.682 58.716V55.524H47.746V62.118C47.746 63.014 47.606 63.7373 47.326 64.288C47.0553 64.848 46.6167 65.2587 46.01 65.52C45.4127 65.7813 44.6147 65.912 43.616 65.912ZM44.022 61.824C44.47 61.824 44.876 61.726 45.24 61.53C45.6133 61.334 45.9073 61.054 46.122 60.69C46.346 60.3167 46.458 59.8733 46.458 59.36V58.716C46.458 58.212 46.3413 57.7873 46.108 57.442C45.884 57.0967 45.59 56.8353 45.226 56.658C44.862 56.4807 44.4653 56.392 44.036 56.392C43.5507 56.392 43.1213 56.504 42.748 56.728C42.3747 56.952 42.0853 57.2693 41.88 57.68C41.6747 58.0813 41.572 58.5573 41.572 59.108C41.572 59.6587 41.6747 60.1393 41.88 60.55C42.0947 60.9607 42.384 61.278 42.748 61.502C43.1213 61.7167 43.546 61.824 44.022 61.824ZM50.0393 63V52.78H51.3833V63H50.0393ZM49.0033 53.844V52.78H51.3833V53.844H49.0033ZM57.1251 63.252C56.4718 63.252 55.8978 63.14 55.4031 62.916C54.9085 62.692 54.4885 62.398 54.1431 62.034C53.8071 61.6607 53.5505 61.2453 53.3731 60.788C53.2051 60.3307 53.1211 59.864 53.1211 59.388V59.136C53.1211 58.66 53.2098 58.1933 53.3871 57.736C53.5645 57.2693 53.8258 56.854 54.1711 56.49C54.5165 56.1167 54.9365 55.8227 55.4311 55.608C55.9258 55.384 56.4905 55.272 57.1251 55.272C57.7598 55.272 58.3245 55.384 58.8191 55.608C59.3138 55.8227 59.7338 56.1167 60.0791 56.49C60.4245 56.854 60.6858 57.2693 60.8631 57.736C61.0405 58.1933 61.1291 58.66 61.1291 59.136V59.388C61.1291 59.864 61.0405 60.3307 60.8631 60.788C60.6951 61.2453 60.4385 61.6607 60.0931 62.034C59.7571 62.398 59.3418 62.692 58.8471 62.916C58.3525 63.14 57.7785 63.252 57.1251 63.252ZM57.1251 62.048C57.6851 62.048 58.1611 61.9267 58.5531 61.684C58.9545 61.432 59.2578 61.096 59.4631 60.676C59.6778 60.256 59.7851 59.7847 59.7851 59.262C59.7851 58.73 59.6778 58.254 59.4631 57.834C59.2485 57.414 58.9405 57.0827 58.5391 56.84C58.1471 56.5973 57.6758 56.476 57.1251 56.476C56.5838 56.476 56.1125 56.5973 55.7111 56.84C55.3098 57.0827 55.0018 57.414 54.7871 57.834C54.5725 58.254 54.4651 58.73 54.4651 59.262C54.4651 59.7847 54.5678 60.256 54.7731 60.676C54.9878 61.096 55.2911 61.432 55.6831 61.684C56.0845 61.9267 56.5651 62.048 57.1251 62.048ZM66.8101 63.252C66.1941 63.252 65.6434 63.1167 65.1581 62.846C64.6821 62.5753 64.3041 62.1833 64.0241 61.67C63.7441 61.1473 63.5901 60.522 63.5621 59.794H63.9261V63H62.8621V52.78H64.2061V57.75L63.7301 58.772C63.7674 57.96 63.9307 57.2973 64.2201 56.784C64.5094 56.2707 64.8874 55.8927 65.3541 55.65C65.8301 55.398 66.3527 55.272 66.9221 55.272C67.4541 55.272 67.9394 55.3747 68.3781 55.58C68.8167 55.776 69.1947 56.0513 69.5121 56.406C69.8294 56.7513 70.0721 57.1573 70.2401 57.624C70.4081 58.0813 70.4921 58.576 70.4921 59.108V59.36C70.4921 59.892 70.4034 60.3913 70.2261 60.858C70.0581 61.3247 69.8107 61.74 69.4841 62.104C69.1574 62.4587 68.7654 62.7387 68.3081 62.944C67.8601 63.1493 67.3607 63.252 66.8101 63.252ZM66.6561 62.076C67.1601 62.076 67.5987 61.9547 67.9721 61.712C68.3454 61.4693 68.6347 61.138 68.8401 60.718C69.0454 60.2887 69.1481 59.794 69.1481 59.234C69.1481 58.674 69.0407 58.184 68.8261 57.764C68.6207 57.344 68.3314 57.022 67.9581 56.798C67.5847 56.5647 67.1507 56.448 66.6561 56.448C66.2081 56.448 65.7927 56.5507 65.4101 56.756C65.0274 56.952 64.7194 57.2413 64.4861 57.624C64.2621 57.9973 64.1501 58.45 64.1501 58.982V59.626C64.1501 60.1393 64.2667 60.578 64.5001 60.942C64.7334 61.306 65.0414 61.586 65.4241 61.782C65.8067 61.978 66.2174 62.076 66.6561 62.076ZM76.7564 63V60.76H76.5324V58.17C76.5324 57.6567 76.3971 57.2693 76.1264 57.008C75.8651 56.7467 75.4777 56.616 74.9644 56.616C74.6751 56.616 74.3764 56.6207 74.0684 56.63C73.7604 56.6393 73.4664 56.6487 73.1864 56.658C72.9064 56.6673 72.6637 56.6813 72.4584 56.7V55.524C72.6637 55.5053 72.8784 55.4913 73.1024 55.482C73.3357 55.4633 73.5737 55.454 73.8164 55.454C74.0591 55.4447 74.2924 55.44 74.5164 55.44C75.2817 55.44 75.9071 55.5333 76.3924 55.72C76.8777 55.8973 77.2371 56.1913 77.4704 56.602C77.7037 57.0127 77.8204 57.568 77.8204 58.268V63H76.7564ZM74.3064 63.196C73.7464 63.196 73.2611 63.1027 72.8504 62.916C72.4491 62.72 72.1364 62.44 71.9124 62.076C71.6977 61.712 71.5904 61.2733 71.5904 60.76C71.5904 60.228 71.7071 59.7847 71.9404 59.43C72.1831 59.0753 72.5331 58.8093 72.9904 58.632C73.4477 58.4453 73.9984 58.352 74.6424 58.352H76.6724V59.36H74.5864C74.0451 59.36 73.6297 59.4907 73.3404 59.752C73.0511 60.0133 72.9064 60.3493 72.9064 60.76C72.9064 61.1707 73.0511 61.502 73.3404 61.754C73.6297 62.006 74.0451 62.132 74.5864 62.132C74.9037 62.132 75.2071 62.076 75.4964 61.964C75.7857 61.8427 76.0237 61.6467 76.2104 61.376C76.4064 61.096 76.5137 60.7133 76.5324 60.228L76.8964 60.76C76.8497 61.292 76.7191 61.74 76.5044 62.104C76.2991 62.4587 76.0097 62.7293 75.6364 62.916C75.2724 63.1027 74.8291 63.196 74.3064 63.196ZM80.0911 63V52.78H81.4351V63H80.0911ZM79.0551 53.844V52.78H81.4351V53.844H79.0551ZM89.2285 63.224C88.3419 63.224 87.6605 62.9347 87.1845 62.356C86.7085 61.7773 86.4705 60.942 86.4705 59.85V55.51H87.8145V60.116C87.8145 60.704 87.9732 61.166 88.2905 61.502C88.6079 61.8287 89.0372 61.992 89.5785 61.992C90.1385 61.992 90.5959 61.8147 90.9505 61.46C91.3052 61.096 91.4825 60.6013 91.4825 59.976V55.51H92.8265V63H91.7625V59.794H91.9305C91.9305 60.5313 91.8325 61.1567 91.6365 61.67C91.4405 62.174 91.1465 62.5613 90.7545 62.832C90.3719 63.0933 89.8819 63.224 89.2845 63.224H89.2285ZM97.5996 63.224C96.6196 63.224 95.8589 63.014 95.3176 62.594C94.7856 62.174 94.5102 61.6 94.4916 60.872H95.7516C95.7702 61.1613 95.9149 61.4367 96.1856 61.698C96.4656 61.95 96.9369 62.076 97.5996 62.076C98.1969 62.076 98.6542 61.9593 98.9716 61.726C99.2889 61.4833 99.4476 61.1893 99.4476 60.844C99.4476 60.536 99.3309 60.298 99.0976 60.13C98.8642 59.9527 98.4862 59.836 97.9636 59.78L97.1516 59.696C96.4422 59.6213 95.8636 59.4113 95.4156 59.066C94.9676 58.7113 94.7436 58.2167 94.7436 57.582C94.7436 57.106 94.8649 56.7 95.1076 56.364C95.3502 56.0187 95.6862 55.7573 96.1156 55.58C96.5449 55.3933 97.0396 55.3 97.5996 55.3C98.4396 55.3 99.1209 55.4867 99.6436 55.86C100.166 56.2333 100.437 56.7887 100.456 57.526H99.1956C99.1862 57.2273 99.0462 56.9753 98.7756 56.77C98.5142 56.5553 98.1222 56.448 97.5996 56.448C97.0769 56.448 96.6802 56.5553 96.4096 56.77C96.1389 56.9847 96.0036 57.2553 96.0036 57.582C96.0036 57.862 96.0969 58.086 96.2836 58.254C96.4796 58.422 96.7969 58.5293 97.2356 58.576L98.0476 58.66C98.8502 58.744 99.4942 58.968 99.9796 59.332C100.465 59.6867 100.708 60.1907 100.708 60.844C100.708 61.3107 100.572 61.726 100.302 62.09C100.04 62.4447 99.6762 62.7247 99.2096 62.93C98.7429 63.126 98.2062 63.224 97.5996 63.224ZM105.553 63.252C104.9 63.252 104.335 63.14 103.859 62.916C103.383 62.692 102.996 62.398 102.697 62.034C102.399 61.6607 102.175 61.2453 102.025 60.788C101.885 60.3307 101.815 59.864 101.815 59.388V59.136C101.815 58.6507 101.885 58.1793 102.025 57.722C102.175 57.2647 102.399 56.854 102.697 56.49C102.996 56.1167 103.374 55.8227 103.831 55.608C104.298 55.384 104.844 55.272 105.469 55.272C106.281 55.272 106.949 55.4493 107.471 55.804C108.003 56.1493 108.395 56.5973 108.647 57.148C108.909 57.6987 109.039 58.2867 109.039 58.912V59.514H102.403V58.506H108.059L107.751 59.052C107.751 58.52 107.667 58.0627 107.499 57.68C107.331 57.288 107.079 56.9847 106.743 56.77C106.407 56.5553 105.983 56.448 105.469 56.448C104.937 56.448 104.494 56.5693 104.139 56.812C103.794 57.0547 103.533 57.386 103.355 57.806C103.187 58.226 103.103 58.7113 103.103 59.262C103.103 59.794 103.187 60.2747 103.355 60.704C103.533 61.124 103.803 61.46 104.167 61.712C104.531 61.9547 104.993 62.076 105.553 62.076C106.141 62.076 106.617 61.9453 106.981 61.684C107.355 61.4227 107.579 61.1193 107.653 60.774H108.913C108.811 61.2873 108.605 61.7307 108.297 62.104C107.989 62.4773 107.602 62.762 107.135 62.958C106.669 63.154 106.141 63.252 105.553 63.252ZM110.668 63V55.524H111.732V58.604H111.676C111.676 57.512 111.914 56.714 112.39 56.21C112.875 55.6967 113.598 55.44 114.56 55.44H114.812V56.644H114.336C113.589 56.644 113.015 56.8447 112.614 57.246C112.212 57.638 112.012 58.2073 112.012 58.954V63H110.668ZM118.58 63.224C117.6 63.224 116.839 63.014 116.298 62.594C115.766 62.174 115.491 61.6 115.472 60.872H116.732C116.751 61.1613 116.895 61.4367 117.166 61.698C117.446 61.95 117.917 62.076 118.58 62.076C119.177 62.076 119.635 61.9593 119.952 61.726C120.269 61.4833 120.428 61.1893 120.428 60.844C120.428 60.536 120.311 60.298 120.078 60.13C119.845 59.9527 119.467 59.836 118.944 59.78L118.132 59.696C117.423 59.6213 116.844 59.4113 116.396 59.066C115.948 58.7113 115.724 58.2167 115.724 57.582C115.724 57.106 115.845 56.7 116.088 56.364C116.331 56.0187 116.667 55.7573 117.096 55.58C117.525 55.3933 118.02 55.3 118.58 55.3C119.42 55.3 120.101 55.4867 120.624 55.86C121.147 56.2333 121.417 56.7887 121.436 57.526H120.176C120.167 57.2273 120.027 56.9753 119.756 56.77C119.495 56.5553 119.103 56.448 118.58 56.448C118.057 56.448 117.661 56.5553 117.39 56.77C117.119 56.9847 116.984 57.2553 116.984 57.582C116.984 57.862 117.077 58.086 117.264 58.254C117.46 58.422 117.777 58.5293 118.216 58.576L119.028 58.66C119.831 58.744 120.475 58.968 120.96 59.332C121.445 59.6867 121.688 60.1907 121.688 60.844C121.688 61.3107 121.553 61.726 121.282 62.09C121.021 62.4447 120.657 62.7247 120.19 62.93C119.723 63.126 119.187 63.224 118.58 63.224Z" fill="white" fill-opacity="0.5"/>
<defs>
<radialGradient id="paint0_radial_1194_4186" cx="0" cy="0" r="1" gradientUnits="userSpaceOnUse" gradientTransform="translate(81) rotate(90) scale(92 81)">
<stop stop-color="white"/>
<stop offset="1" stop-color="white" stop-opacity="0"/>
</radialGradient>
<radialGradient id="paint1_radial_1194_4186" cx="0" cy="0" r="1" gradientUnits="userSpaceOnUse" gradientTransform="translate(81) rotate(90) scale(68.1154 75.1824)">
<stop stop-color="white"/>
<stop offset="1" stop-color="white" stop-opacity="0"/>
</radialGradient>
<linearGradient id="paint2_linear_1194_4186" x1="81" y1="24" x2="81" y2="48" gradientUnits="userSpaceOnUse">
<stop offset="0.0885417" stop-color="white" stop-opacity="0.72"/>
<stop offset="1" stop-color="white"/>
</linearGradient>
</defs>
</svg>
