<svg width="162" height="92" viewBox="0 0 162 92" fill="none" xmlns="http://www.w3.org/2000/svg">
<rect width="162" height="92" rx="10" fill="white" fill-opacity="0.01"/>
<rect width="162" height="92" rx="10" fill="url(#paint0_radial_1194_4190)" fill-opacity="0.12"/>
<rect x="0.5" y="0.5" width="161" height="91" rx="9.5" stroke="white" stroke-opacity="0.06"/>
<rect x="0.5" y="0.5" width="161" height="91" rx="9.5" stroke="url(#paint1_radial_1194_4190)" stroke-opacity="0.12"/>
<path d="M51.216 41V39.08C51.216 38.6107 51.28 38.2107 51.408 37.88C51.5467 37.5493 51.7813 37.2507 52.112 36.984C52.4427 36.7067 52.8907 36.44 53.456 36.184L55.648 35.176C56.1813 34.9307 56.6027 34.616 56.912 34.232C57.2213 33.8373 57.376 33.3307 57.376 32.712C57.376 31.9653 57.168 31.384 56.752 30.968C56.336 30.552 55.7493 30.344 54.992 30.344C54.2453 30.344 53.6587 30.552 53.232 30.968C52.8053 31.384 52.592 31.9653 52.592 32.712H51.088C51.088 32.04 51.2267 31.4213 51.504 30.856C51.792 30.2907 52.224 29.8427 52.8 29.512C53.376 29.1707 54.1067 29 54.992 29C55.8773 29 56.6027 29.1707 57.168 29.512C57.744 29.8427 58.1707 30.28 58.448 30.824C58.736 31.368 58.88 31.96 58.88 32.6V32.824C58.88 33.6667 58.6347 34.376 58.144 34.952C57.664 35.528 57.0133 36.0027 56.192 36.376L54 37.384C53.5093 37.608 53.1787 37.832 53.008 38.056C52.8373 38.28 52.752 38.5787 52.752 38.952V40.424L52.336 39.688H59.024V41H51.216ZM65.5226 41.288C64.648 41.288 63.9013 41.1387 63.2826 40.84C62.6746 40.5307 62.1786 40.1147 61.7946 39.592C61.4213 39.0693 61.1493 38.4667 60.9786 37.784C60.808 37.0907 60.7226 36.36 60.7226 35.592V34.728C60.7226 33.6507 60.888 32.68 61.2186 31.816C61.56 30.952 62.0826 30.2693 62.7866 29.768C63.5013 29.256 64.4133 29 65.5226 29C66.632 29 67.5386 29.256 68.2426 29.768C68.9466 30.2693 69.464 30.952 69.7946 31.816C70.136 32.68 70.3066 33.6507 70.3066 34.728V35.592C70.3066 36.36 70.2213 37.0907 70.0506 37.784C69.88 38.4667 69.6026 39.0693 69.2186 39.592C68.8453 40.1147 68.3546 40.5307 67.7466 40.84C67.1386 41.1387 66.3973 41.288 65.5226 41.288ZM65.5226 39.88C66.632 39.88 67.4426 39.5067 67.9546 38.76C68.4773 38.0027 68.7386 36.808 68.7386 35.176C68.7386 33.4693 68.472 32.248 67.9386 31.512C67.416 30.776 66.6106 30.408 65.5226 30.408C64.424 30.408 63.608 30.776 63.0746 31.512C62.552 32.248 62.2906 33.4587 62.2906 35.144C62.2906 36.7867 62.552 37.9867 63.0746 38.744C63.5973 39.5013 64.4133 39.88 65.5226 39.88ZM77.0933 41.288C76.2186 41.288 75.4719 41.1387 74.8533 40.84C74.2453 40.5307 73.7493 40.1147 73.3653 39.592C72.9919 39.0693 72.7199 38.4667 72.5493 37.784C72.3786 37.0907 72.2933 36.36 72.2933 35.592V34.728C72.2933 33.6507 72.4586 32.68 72.7893 31.816C73.1306 30.952 73.6533 30.2693 74.3573 29.768C75.0719 29.256 75.9839 29 77.0933 29C78.2026 29 79.1093 29.256 79.8133 29.768C80.5173 30.2693 81.0346 30.952 81.3653 31.816C81.7066 32.68 81.8773 33.6507 81.8773 34.728V35.592C81.8773 36.36 81.7919 37.0907 81.6213 37.784C81.4506 38.4667 81.1733 39.0693 80.7893 39.592C80.4159 40.1147 79.9253 40.5307 79.3173 40.84C78.7093 41.1387 77.9679 41.288 77.0933 41.288ZM77.0933 39.88C78.2026 39.88 79.0133 39.5067 79.5253 38.76C80.0479 38.0027 80.3093 36.808 80.3093 35.176C80.3093 33.4693 80.0426 32.248 79.5093 31.512C78.9866 30.776 78.1813 30.408 77.0933 30.408C75.9946 30.408 75.1786 30.776 74.6453 31.512C74.1226 32.248 73.8613 33.4587 73.8613 35.144C73.8613 36.7867 74.1226 37.9867 74.6453 38.744C75.1679 39.5013 75.9839 39.88 77.0933 39.88ZM86.6799 41V30.408H88.2479V41H86.6799ZM83.1279 30.728V29.32H91.7999V30.728H83.1279ZM94.8359 41.064V39.688H98.0999C98.7292 39.688 99.2145 39.512 99.5559 39.16C99.9079 38.7973 100.084 38.3173 100.084 37.72C100.084 37.112 99.9132 36.6373 99.5719 36.296C99.2305 35.944 98.7399 35.768 98.0999 35.768H94.8359V34.744H97.8759C98.6225 34.744 99.2785 34.8347 99.8439 35.016C100.42 35.1973 100.868 35.5013 101.188 35.928C101.519 36.344 101.684 36.9147 101.684 37.64V37.864C101.684 38.5467 101.545 39.128 101.268 39.608C100.991 40.0773 100.569 40.44 100.004 40.696C99.4385 40.9413 98.7292 41.064 97.8759 41.064H94.8359ZM93.5879 41.064V29.256H95.1559V41.064H93.5879ZM94.8359 35.48V34.456H97.6679C98.3292 34.456 98.8145 34.28 99.1239 33.928C99.4439 33.5653 99.6039 33.1067 99.6039 32.552C99.6039 31.9867 99.4439 31.528 99.1239 31.176C98.8145 30.8133 98.3292 30.632 97.6679 30.632H94.8359V29.256H97.3959C98.6759 29.256 99.6305 29.528 100.26 30.072C100.889 30.6053 101.204 31.3787 101.204 32.392V32.616C101.204 33.3307 101.044 33.9013 100.724 34.328C100.404 34.744 99.9559 35.0427 99.3799 35.224C98.8145 35.3947 98.1532 35.48 97.3959 35.48H94.8359ZM106.511 39.304V31.688H107.823V39.304H106.511ZM103.503 36.104V34.888H110.831V36.104H103.503Z" fill="url(#paint2_linear_1194_4190)"/>
<path d="M36.788 63V55.524H37.852V58.73H37.684C37.684 58.002 37.7773 57.386 37.964 56.882C38.16 56.3687 38.4493 55.9767 38.832 55.706C39.2147 55.4353 39.7 55.3 40.288 55.3H40.344C40.932 55.3 41.4173 55.4353 41.8 55.706C42.192 55.9767 42.4813 56.3687 42.668 56.882C42.8547 57.386 42.948 58.002 42.948 58.73H42.556C42.556 58.002 42.654 57.386 42.85 56.882C43.046 56.3687 43.3353 55.9767 43.718 55.706C44.11 55.4353 44.6 55.3 45.188 55.3H45.244C45.832 55.3 46.322 55.4353 46.714 55.706C47.106 55.9767 47.3953 56.3687 47.582 56.882C47.778 57.386 47.876 58.002 47.876 58.73V63H46.532V58.436C46.532 57.8293 46.3827 57.3627 46.084 57.036C45.7853 56.7 45.37 56.532 44.838 56.532C44.2873 56.532 43.844 56.7093 43.508 57.064C43.172 57.4093 43.004 57.8947 43.004 58.52V63H41.66V58.436C41.66 57.8293 41.5107 57.3627 41.212 57.036C40.9133 56.7 40.498 56.532 39.966 56.532C39.4153 56.532 38.972 56.7093 38.636 57.064C38.3 57.4093 38.132 57.8947 38.132 58.52V63H36.788ZM53.5008 63.252C52.8475 63.252 52.2735 63.14 51.7788 62.916C51.2842 62.692 50.8642 62.398 50.5188 62.034C50.1828 61.6607 49.9262 61.2453 49.7488 60.788C49.5808 60.3307 49.4968 59.864 49.4968 59.388V59.136C49.4968 58.66 49.5855 58.1933 49.7628 57.736C49.9402 57.2693 50.2015 56.854 50.5468 56.49C50.8922 56.1167 51.3122 55.8227 51.8068 55.608C52.3015 55.384 52.8662 55.272 53.5008 55.272C54.1355 55.272 54.7002 55.384 55.1948 55.608C55.6895 55.8227 56.1095 56.1167 56.4548 56.49C56.8002 56.854 57.0615 57.2693 57.2388 57.736C57.4162 58.1933 57.5048 58.66 57.5048 59.136V59.388C57.5048 59.864 57.4162 60.3307 57.2388 60.788C57.0708 61.2453 56.8142 61.6607 56.4688 62.034C56.1328 62.398 55.7175 62.692 55.2228 62.916C54.7282 63.14 54.1542 63.252 53.5008 63.252ZM53.5008 62.048C54.0608 62.048 54.5368 61.9267 54.9288 61.684C55.3302 61.432 55.6335 61.096 55.8388 60.676C56.0535 60.256 56.1608 59.7847 56.1608 59.262C56.1608 58.73 56.0535 58.254 55.8388 57.834C55.6242 57.414 55.3162 57.0827 54.9148 56.84C54.5228 56.5973 54.0515 56.476 53.5008 56.476C52.9595 56.476 52.4882 56.5973 52.0868 56.84C51.6855 57.0827 51.3775 57.414 51.1628 57.834C50.9482 58.254 50.8408 58.73 50.8408 59.262C50.8408 59.7847 50.9435 60.256 51.1488 60.676C51.3635 61.096 51.6668 61.432 52.0588 61.684C52.4602 61.9267 52.9408 62.048 53.5008 62.048ZM59.2378 63V55.524H60.3018V58.73H60.1338C60.1338 57.9927 60.2318 57.372 60.4278 56.868C60.6331 56.3547 60.9411 55.9673 61.3518 55.706C61.7624 55.4353 62.2804 55.3 62.9058 55.3H62.9618C63.9044 55.3 64.5998 55.594 65.0478 56.182C65.5051 56.77 65.7338 57.6193 65.7338 58.73V63H64.3898V58.45C64.3898 57.8713 64.2264 57.4093 63.8998 57.064C63.5731 56.7093 63.1251 56.532 62.5558 56.532C61.9678 56.532 61.4918 56.714 61.1278 57.078C60.7638 57.442 60.5818 57.9273 60.5818 58.534V63H59.2378ZM70.8248 63.084C70.2648 63.084 69.7795 63.0047 69.3688 62.846C68.9675 62.6873 68.6548 62.4167 68.4308 62.034C68.2162 61.642 68.1088 61.1147 68.1088 60.452V53.256H69.3968V60.62C69.3968 61.0213 69.5042 61.334 69.7188 61.558C69.9428 61.7727 70.2555 61.88 70.6568 61.88H71.9728V63.084H70.8248ZM66.8208 56.532V55.524H71.9728V56.532H66.8208ZM73.5938 63V52.78H74.9378V58.884H74.6018C74.6018 58.1467 74.6951 57.512 74.8818 56.98C75.0778 56.4387 75.3764 56.0233 75.7778 55.734C76.1791 55.4447 76.6924 55.3 77.3178 55.3H77.3738C78.2698 55.3 78.9464 55.5987 79.4038 56.196C79.8611 56.784 80.0898 57.6287 80.0898 58.73V63H78.7458V58.45C78.7458 57.8433 78.5731 57.372 78.2278 57.036C77.8918 56.7 77.4531 56.532 76.9118 56.532C76.3144 56.532 75.8338 56.7327 75.4698 57.134C75.1151 57.526 74.9378 58.044 74.9378 58.688V63H73.5938ZM82.3529 63V52.78H83.6969V63H82.3529ZM81.3169 53.844V52.78H83.6969V53.844H81.3169ZM85.4907 65.912V64.708H86.5687C86.8861 64.708 87.1521 64.666 87.3667 64.582C87.5907 64.5073 87.7727 64.3767 87.9127 64.19C88.0621 64.0033 88.1834 63.756 88.2767 63.448L90.6287 55.524H91.9447L89.4527 63.798C89.3034 64.2927 89.0934 64.694 88.8227 65.002C88.5521 65.3193 88.2207 65.548 87.8287 65.688C87.4461 65.8373 86.9981 65.912 86.4847 65.912H85.4907ZM87.7727 62.832V61.712H89.3967V62.832H87.7727ZM87.6327 62.832L84.9587 55.524H86.3307L88.8927 62.832H87.6327ZM99.3985 63.252C98.8665 63.252 98.3765 63.154 97.9285 62.958C97.4805 62.762 97.0885 62.4867 96.7525 62.132C96.4258 61.7773 96.1692 61.3667 95.9825 60.9C95.8052 60.4333 95.7165 59.9293 95.7165 59.388V59.136C95.7165 58.604 95.8052 58.1047 95.9825 57.638C96.1598 57.1713 96.4072 56.7607 96.7245 56.406C97.0512 56.0513 97.4338 55.776 97.8725 55.58C98.3205 55.3747 98.8152 55.272 99.3565 55.272C99.9258 55.272 100.444 55.3933 100.911 55.636C101.377 55.8693 101.76 56.238 102.059 56.742C102.357 57.246 102.525 57.8993 102.563 58.702L102.003 57.806V52.78H103.347V63H102.283V59.682H102.675C102.637 60.5313 102.46 61.222 102.143 61.754C101.825 62.2767 101.424 62.6593 100.939 62.902C100.463 63.1353 99.9492 63.252 99.3985 63.252ZM99.5805 62.076C100.038 62.076 100.453 61.9733 100.827 61.768C101.2 61.5627 101.499 61.2687 101.723 60.886C101.947 60.494 102.059 60.0367 102.059 59.514V58.87C102.059 58.3567 101.942 57.9227 101.709 57.568C101.485 57.204 101.181 56.9287 100.799 56.742C100.425 56.546 100.015 56.448 99.5665 56.448C99.0718 56.448 98.6332 56.5647 98.2505 56.798C97.8772 57.0313 97.5832 57.358 97.3685 57.778C97.1632 58.198 97.0605 58.6927 97.0605 59.262C97.0605 59.8313 97.1678 60.3307 97.3825 60.76C97.5972 61.18 97.8958 61.5067 98.2785 61.74C98.6612 61.964 99.0952 62.076 99.5805 62.076ZM110.171 63V60.76H109.947V58.17C109.947 57.6567 109.812 57.2693 109.541 57.008C109.28 56.7467 108.892 56.616 108.379 56.616C108.09 56.616 107.791 56.6207 107.483 56.63C107.175 56.6393 106.881 56.6487 106.601 56.658C106.321 56.6673 106.078 56.6813 105.873 56.7V55.524C106.078 55.5053 106.293 55.4913 106.517 55.482C106.75 55.4633 106.988 55.454 107.231 55.454C107.474 55.4447 107.707 55.44 107.931 55.44C108.696 55.44 109.322 55.5333 109.807 55.72C110.292 55.8973 110.652 56.1913 110.885 56.602C111.118 57.0127 111.235 57.568 111.235 58.268V63H110.171ZM107.721 63.196C107.161 63.196 106.676 63.1027 106.265 62.916C105.864 62.72 105.551 62.44 105.327 62.076C105.112 61.712 105.005 61.2733 105.005 60.76C105.005 60.228 105.122 59.7847 105.355 59.43C105.598 59.0753 105.948 58.8093 106.405 58.632C106.862 58.4453 107.413 58.352 108.057 58.352H110.087V59.36H108.001C107.46 59.36 107.044 59.4907 106.755 59.752C106.466 60.0133 106.321 60.3493 106.321 60.76C106.321 61.1707 106.466 61.502 106.755 61.754C107.044 62.006 107.46 62.132 108.001 62.132C108.318 62.132 108.622 62.076 108.911 61.964C109.2 61.8427 109.438 61.6467 109.625 61.376C109.821 61.096 109.928 60.7133 109.947 60.228L110.311 60.76C110.264 61.292 110.134 61.74 109.919 62.104C109.714 62.4587 109.424 62.7293 109.051 62.916C108.687 63.1027 108.244 63.196 107.721 63.196ZM116.334 63.084C115.774 63.084 115.288 63.0047 114.878 62.846C114.476 62.6873 114.164 62.4167 113.94 62.034C113.725 61.642 113.618 61.1147 113.618 60.452V53.256H114.906V60.62C114.906 61.0213 115.013 61.334 115.228 61.558C115.452 61.7727 115.764 61.88 116.166 61.88H117.482V63.084H116.334ZM112.33 56.532V55.524H117.482V56.532H112.33ZM123.597 63V60.76H123.373V58.17C123.373 57.6567 123.238 57.2693 122.967 57.008C122.706 56.7467 122.319 56.616 121.805 56.616C121.516 56.616 121.217 56.6207 120.909 56.63C120.601 56.6393 120.307 56.6487 120.027 56.658C119.747 56.6673 119.505 56.6813 119.299 56.7V55.524C119.505 55.5053 119.719 55.4913 119.943 55.482C120.177 55.4633 120.415 55.454 120.657 55.454C120.9 55.4447 121.133 55.44 121.357 55.44C122.123 55.44 122.748 55.5333 123.233 55.72C123.719 55.8973 124.078 56.1913 124.311 56.602C124.545 57.0127 124.661 57.568 124.661 58.268V63H123.597ZM121.147 63.196C120.587 63.196 120.102 63.1027 119.691 62.916C119.29 62.72 118.977 62.44 118.753 62.076C118.539 61.712 118.431 61.2733 118.431 60.76C118.431 60.228 118.548 59.7847 118.781 59.43C119.024 59.0753 119.374 58.8093 119.831 58.632C120.289 58.4453 120.839 58.352 121.483 58.352H123.513V59.36H121.427C120.886 59.36 120.471 59.4907 120.181 59.752C119.892 60.0133 119.747 60.3493 119.747 60.76C119.747 61.1707 119.892 61.502 120.181 61.754C120.471 62.006 120.886 62.132 121.427 62.132C121.745 62.132 122.048 62.076 122.337 61.964C122.627 61.8427 122.865 61.6467 123.051 61.376C123.247 61.096 123.355 60.7133 123.373 60.228L123.737 60.76C123.691 61.292 123.56 61.74 123.345 62.104C123.14 62.4587 122.851 62.7293 122.477 62.916C122.113 63.1027 121.67 63.196 121.147 63.196Z" fill="white" fill-opacity="0.5"/>
<defs>
<radialGradient id="paint0_radial_1194_4190" cx="0" cy="0" r="1" gradientUnits="userSpaceOnUse" gradientTransform="translate(81) rotate(90) scale(92 81)">
<stop stop-color="white"/>
<stop offset="1" stop-color="white" stop-opacity="0"/>
</radialGradient>
<radialGradient id="paint1_radial_1194_4190" cx="0" cy="0" r="1" gradientUnits="userSpaceOnUse" gradientTransform="translate(81) rotate(90) scale(68.1154 75.1824)">
<stop stop-color="white"/>
<stop offset="1" stop-color="white" stop-opacity="0"/>
</radialGradient>
<linearGradient id="paint2_linear_1194_4190" x1="81" y1="24" x2="81" y2="48" gradientUnits="userSpaceOnUse">
<stop offset="0.0885417" stop-color="white" stop-opacity="0.72"/>
<stop offset="1" stop-color="white"/>
</linearGradient>
</defs>
</svg>
