<svg width="162" height="92" viewBox="0 0 162 92" fill="none" xmlns="http://www.w3.org/2000/svg">
<rect width="162" height="92" rx="10" fill="white" fill-opacity="0.01"/>
<rect width="162" height="92" rx="10" fill="url(#paint0_radial_1194_4187)" fill-opacity="0.12"/>
<rect x="0.5" y="0.5" width="161" height="91" rx="9.5" stroke="white" stroke-opacity="0.06"/>
<rect x="0.5" y="0.5" width="161" height="91" rx="9.5" stroke="url(#paint1_radial_1194_4187)" stroke-opacity="0.12"/>
<path d="M69.952 41.288C69.0773 41.288 68.3307 41.1387 67.712 40.84C67.104 40.5307 66.608 40.1147 66.224 39.592C65.8507 39.0693 65.5787 38.4667 65.408 37.784C65.2373 37.0907 65.152 36.36 65.152 35.592V34.728C65.152 33.6507 65.3173 32.68 65.648 31.816C65.9893 30.952 66.512 30.2693 67.216 29.768C67.9307 29.256 68.8427 29 69.952 29C71.0613 29 71.968 29.256 72.672 29.768C73.376 30.2693 73.8933 30.952 74.224 31.816C74.5653 32.68 74.736 33.6507 74.736 34.728V35.592C74.736 36.36 74.6507 37.0907 74.48 37.784C74.3093 38.4667 74.032 39.0693 73.648 39.592C73.2747 40.1147 72.784 40.5307 72.176 40.84C71.568 41.1387 70.8267 41.288 69.952 41.288ZM69.952 39.88C71.0613 39.88 71.872 39.5067 72.384 38.76C72.9067 38.0027 73.168 36.808 73.168 35.176C73.168 33.4693 72.9013 32.248 72.368 31.512C71.8453 30.776 71.04 30.408 69.952 30.408C68.8533 30.408 68.0373 30.776 67.504 31.512C66.9813 32.248 66.72 33.4587 66.72 35.144C66.72 36.7867 66.9813 37.9867 67.504 38.744C68.0267 39.5013 68.8427 39.88 69.952 39.88ZM76.7386 41V39.048H78.5946V41H76.7386ZM84.5261 41.288C83.6941 41.288 82.9528 41.1387 82.3021 40.84C81.6621 40.5413 81.1555 40.1253 80.7821 39.592C80.4195 39.0587 80.2381 38.44 80.2381 37.736C80.2381 37.2667 80.3288 36.8453 80.5101 36.472C80.6915 36.088 80.9421 35.7573 81.2621 35.48C81.5821 35.2027 81.9448 34.9893 82.3501 34.84V34.68C82.0301 34.5413 81.7368 34.3547 81.4701 34.12C81.2141 33.8853 81.0061 33.608 80.8461 33.288C80.6968 32.968 80.6221 32.6053 80.6221 32.2C80.6221 31.528 80.7981 30.9573 81.1501 30.488C81.5128 30.0187 81.9875 29.6613 82.5741 29.416C83.1715 29.16 83.8221 29.032 84.5261 29.032C85.2408 29.032 85.8915 29.16 86.4781 29.416C87.0755 29.6613 87.5501 30.0187 87.9021 30.488C88.2541 30.9573 88.4301 31.528 88.4301 32.2C88.4301 32.6053 88.3555 32.968 88.2061 33.288C88.0568 33.608 87.8488 33.8853 87.5821 34.12C87.3261 34.3547 87.0328 34.5413 86.7021 34.68V34.84C87.1181 34.9893 87.4861 35.208 87.8061 35.496C88.1261 35.7733 88.3768 36.104 88.5581 36.488C88.7395 36.8613 88.8301 37.2773 88.8301 37.736C88.8301 38.44 88.6435 39.0587 88.2701 39.592C87.9075 40.1253 87.4008 40.5413 86.7501 40.84C86.1101 41.1387 85.3688 41.288 84.5261 41.288ZM84.5261 39.976C85.1128 39.976 85.6141 39.8853 86.0301 39.704C86.4461 39.512 86.7661 39.2453 86.9901 38.904C87.2141 38.552 87.3261 38.1413 87.3261 37.672C87.3261 37.2027 87.2141 36.7973 86.9901 36.456C86.7768 36.1147 86.4621 35.8533 86.0461 35.672C85.6301 35.48 85.1235 35.384 84.5261 35.384C83.9395 35.384 83.4381 35.48 83.0221 35.672C82.6061 35.8533 82.2861 36.1147 82.0621 36.456C81.8488 36.7973 81.7421 37.2027 81.7421 37.672C81.7421 38.1413 81.8488 38.552 82.0621 38.904C82.2861 39.2453 82.6061 39.512 83.0221 39.704C83.4381 39.8853 83.9395 39.976 84.5261 39.976ZM84.5261 34.168C85.2515 34.168 85.8328 34.0133 86.2701 33.704C86.7075 33.384 86.9261 32.8987 86.9261 32.248C86.9261 31.5867 86.7021 31.1067 86.2541 30.808C85.8168 30.4987 85.2408 30.344 84.5261 30.344C83.8115 30.344 83.2301 30.4987 82.7821 30.808C82.3448 31.1173 82.1261 31.5973 82.1261 32.248C82.1261 32.8987 82.3448 33.384 82.7821 33.704C83.2301 34.0133 83.8115 34.168 84.5261 34.168ZM93.5776 41.256C92.4576 41.256 91.5883 41.016 90.9696 40.536C90.3616 40.056 90.047 39.4 90.0256 38.568H91.4656C91.487 38.8987 91.6523 39.2133 91.9616 39.512C92.2816 39.8 92.8203 39.944 93.5776 39.944C94.2603 39.944 94.783 39.8107 95.1456 39.544C95.5083 39.2667 95.6896 38.9307 95.6896 38.536C95.6896 38.184 95.5563 37.912 95.2896 37.72C95.023 37.5173 94.591 37.384 93.9936 37.32L93.0656 37.224C92.255 37.1387 91.5936 36.8987 91.0816 36.504C90.5696 36.0987 90.3136 35.5333 90.3136 34.808C90.3136 34.264 90.4523 33.8 90.7296 33.416C91.007 33.0213 91.391 32.7227 91.8816 32.52C92.3723 32.3067 92.9376 32.2 93.5776 32.2C94.5376 32.2 95.3163 32.4133 95.9136 32.84C96.511 33.2667 96.8203 33.9013 96.8416 34.744H95.4016C95.391 34.4027 95.231 34.1147 94.9216 33.88C94.623 33.6347 94.175 33.512 93.5776 33.512C92.9803 33.512 92.527 33.6347 92.2176 33.88C91.9083 34.1253 91.7536 34.4347 91.7536 34.808C91.7536 35.128 91.8603 35.384 92.0736 35.576C92.2976 35.768 92.6603 35.8907 93.1616 35.944L94.0896 36.04C95.007 36.136 95.743 36.392 96.2976 36.808C96.8523 37.2133 97.1296 37.7893 97.1296 38.536C97.1296 39.0693 96.975 39.544 96.6656 39.96C96.367 40.3653 95.951 40.6853 95.4176 40.92C94.8843 41.144 94.271 41.256 93.5776 41.256Z" fill="url(#paint2_linear_1194_4187)"/>
<path d="M39.31 63V60.76H39.086V58.17C39.086 57.6567 38.9507 57.2693 38.68 57.008C38.4187 56.7467 38.0313 56.616 37.518 56.616C37.2287 56.616 36.93 56.6207 36.622 56.63C36.314 56.6393 36.02 56.6487 35.74 56.658C35.46 56.6673 35.2173 56.6813 35.012 56.7V55.524C35.2173 55.5053 35.432 55.4913 35.656 55.482C35.8893 55.4633 36.1273 55.454 36.37 55.454C36.6127 55.4447 36.846 55.44 37.07 55.44C37.8353 55.44 38.4607 55.5333 38.946 55.72C39.4313 55.8973 39.7907 56.1913 40.024 56.602C40.2573 57.0127 40.374 57.568 40.374 58.268V63H39.31ZM36.86 63.196C36.3 63.196 35.8147 63.1027 35.404 62.916C35.0027 62.72 34.69 62.44 34.466 62.076C34.2513 61.712 34.144 61.2733 34.144 60.76C34.144 60.228 34.2607 59.7847 34.494 59.43C34.7367 59.0753 35.0867 58.8093 35.544 58.632C36.0013 58.4453 36.552 58.352 37.196 58.352H39.226V59.36H37.14C36.5987 59.36 36.1833 59.4907 35.894 59.752C35.6047 60.0133 35.46 60.3493 35.46 60.76C35.46 61.1707 35.6047 61.502 35.894 61.754C36.1833 62.006 36.5987 62.132 37.14 62.132C37.4573 62.132 37.7607 62.076 38.05 61.964C38.3393 61.8427 38.5773 61.6467 38.764 61.376C38.96 61.096 39.0673 60.7133 39.086 60.228L39.45 60.76C39.4033 61.292 39.2727 61.74 39.058 62.104C38.8527 62.4587 38.5633 62.7293 38.19 62.916C37.826 63.1027 37.3827 63.196 36.86 63.196ZM44.1294 63L41.5814 55.524H42.9814L45.4734 63H44.1294ZM44.4654 63V61.936H46.0894V63H44.4654ZM45.1094 63L47.2794 55.524H48.5954L46.3834 63H45.1094ZM52.765 65.912C52.4197 65.912 52.0697 65.898 51.715 65.87C51.3697 65.842 51.0383 65.8047 50.721 65.758V64.624C51.057 64.6707 51.407 64.708 51.771 64.736C52.1443 64.7733 52.4943 64.792 52.821 64.792C53.5023 64.792 54.0437 64.6987 54.445 64.512C54.8557 64.3347 55.1497 64.05 55.327 63.658C55.5137 63.2753 55.607 62.7807 55.607 62.174V60.746L56.055 59.682C56.027 60.438 55.8683 61.068 55.579 61.572C55.2897 62.0667 54.9117 62.44 54.445 62.692C53.9877 62.9347 53.479 63.056 52.919 63.056C52.3963 63.056 51.9157 62.958 51.477 62.762C51.0477 62.5567 50.6743 62.2767 50.357 61.922C50.049 61.5673 49.8063 61.1613 49.629 60.704C49.461 60.2373 49.377 59.7473 49.377 59.234V58.982C49.377 58.4593 49.4657 57.974 49.643 57.526C49.8203 57.0687 50.0677 56.672 50.385 56.336C50.7023 56 51.0803 55.7387 51.519 55.552C51.967 55.3653 52.457 55.272 52.989 55.272C53.6143 55.272 54.165 55.4073 54.641 55.678C55.117 55.9393 55.4903 56.3267 55.761 56.84C56.041 57.344 56.195 57.9647 56.223 58.702L55.831 58.716V55.524H56.895V62.118C56.895 63.014 56.755 63.7373 56.475 64.288C56.2043 64.848 55.7657 65.2587 55.159 65.52C54.5617 65.7813 53.7637 65.912 52.765 65.912ZM53.171 61.824C53.619 61.824 54.025 61.726 54.389 61.53C54.7623 61.334 55.0563 61.054 55.271 60.69C55.495 60.3167 55.607 59.8733 55.607 59.36V58.716C55.607 58.212 55.4903 57.7873 55.257 57.442C55.033 57.0967 54.739 56.8353 54.375 56.658C54.011 56.4807 53.6143 56.392 53.185 56.392C52.6997 56.392 52.2703 56.504 51.897 56.728C51.5237 56.952 51.2343 57.2693 51.029 57.68C50.8237 58.0813 50.721 58.5573 50.721 59.108C50.721 59.6587 50.8237 60.1393 51.029 60.55C51.2437 60.9607 51.533 61.278 51.897 61.502C52.2703 61.7167 52.695 61.824 53.171 61.824ZM58.8382 63V61.292H60.4622V63H58.8382ZM65.3939 63V55.524H66.4579V58.604H66.4019C66.4019 57.512 66.6399 56.714 67.1159 56.21C67.6012 55.6967 68.3245 55.44 69.2859 55.44H69.5379V56.644H69.0619C68.3152 56.644 67.7412 56.8447 67.3399 57.246C66.9385 57.638 66.7379 58.2073 66.7379 58.954V63H65.3939ZM73.952 63.252C73.2987 63.252 72.734 63.14 72.258 62.916C71.782 62.692 71.3947 62.398 71.096 62.034C70.7973 61.6607 70.5733 61.2453 70.424 60.788C70.284 60.3307 70.214 59.864 70.214 59.388V59.136C70.214 58.6507 70.284 58.1793 70.424 57.722C70.5733 57.2647 70.7973 56.854 71.096 56.49C71.3947 56.1167 71.7727 55.8227 72.23 55.608C72.6967 55.384 73.2427 55.272 73.868 55.272C74.68 55.272 75.3473 55.4493 75.87 55.804C76.402 56.1493 76.794 56.5973 77.046 57.148C77.3073 57.6987 77.438 58.2867 77.438 58.912V59.514H70.802V58.506H76.458L76.15 59.052C76.15 58.52 76.066 58.0627 75.898 57.68C75.73 57.288 75.478 56.9847 75.142 56.77C74.806 56.5553 74.3813 56.448 73.868 56.448C73.336 56.448 72.8927 56.5693 72.538 56.812C72.1927 57.0547 71.9313 57.386 71.754 57.806C71.586 58.226 71.502 58.7113 71.502 59.262C71.502 59.794 71.586 60.2747 71.754 60.704C71.9313 61.124 72.202 61.46 72.566 61.712C72.93 61.9547 73.392 62.076 73.952 62.076C74.54 62.076 75.016 61.9453 75.38 61.684C75.7533 61.4227 75.9773 61.1193 76.052 60.774H77.312C77.2093 61.2873 77.004 61.7307 76.696 62.104C76.388 62.4773 76.0007 62.762 75.534 62.958C75.0673 63.154 74.54 63.252 73.952 63.252ZM81.5163 63.224C80.5363 63.224 79.7756 63.014 79.2343 62.594C78.7023 62.174 78.4269 61.6 78.4083 60.872H79.6683C79.6869 61.1613 79.8316 61.4367 80.1023 61.698C80.3823 61.95 80.8536 62.076 81.5163 62.076C82.1136 62.076 82.5709 61.9593 82.8883 61.726C83.2056 61.4833 83.3643 61.1893 83.3643 60.844C83.3643 60.536 83.2476 60.298 83.0143 60.13C82.7809 59.9527 82.4029 59.836 81.8803 59.78L81.0683 59.696C80.3589 59.6213 79.7803 59.4113 79.3323 59.066C78.8843 58.7113 78.6603 58.2167 78.6603 57.582C78.6603 57.106 78.7816 56.7 79.0243 56.364C79.2669 56.0187 79.6029 55.7573 80.0323 55.58C80.4616 55.3933 80.9563 55.3 81.5163 55.3C82.3563 55.3 83.0376 55.4867 83.5603 55.86C84.0829 56.2333 84.3536 56.7887 84.3723 57.526H83.1123C83.1029 57.2273 82.9629 56.9753 82.6923 56.77C82.4309 56.5553 82.0389 56.448 81.5163 56.448C80.9936 56.448 80.5969 56.5553 80.3263 56.77C80.0556 56.9847 79.9203 57.2553 79.9203 57.582C79.9203 57.862 80.0136 58.086 80.2003 58.254C80.3963 58.422 80.7136 58.5293 81.1523 58.576L81.9643 58.66C82.7669 58.744 83.4109 58.968 83.8963 59.332C84.3816 59.6867 84.6243 60.1907 84.6243 60.844C84.6243 61.3107 84.4889 61.726 84.2183 62.09C83.9569 62.4447 83.5929 62.7247 83.1263 62.93C82.6596 63.126 82.1229 63.224 81.5163 63.224ZM86.2921 65.8V55.524H87.3561V58.758L87.1041 58.73C87.1508 57.9273 87.3188 57.274 87.6081 56.77C87.9068 56.2567 88.2941 55.8787 88.7701 55.636C89.2461 55.3933 89.7641 55.272 90.3241 55.272C90.8655 55.272 91.3555 55.3747 91.7941 55.58C92.2421 55.7853 92.6248 56.0653 92.9421 56.42C93.2595 56.7747 93.5021 57.1853 93.6701 57.652C93.8381 58.1187 93.9221 58.6133 93.9221 59.136V59.388C93.9221 59.9107 93.8335 60.4053 93.6561 60.872C93.4788 61.3387 93.2268 61.7493 92.9001 62.104C92.5828 62.4587 92.2001 62.7387 91.7521 62.944C91.3135 63.1493 90.8281 63.252 90.2961 63.252C89.7641 63.252 89.2555 63.1353 88.7701 62.902C88.2848 62.6687 87.8835 62.2907 87.5661 61.768C87.2488 61.2453 87.0668 60.5593 87.0201 59.71L87.6361 60.83V65.8H86.2921ZM90.0861 62.076C90.5901 62.076 91.0288 61.9593 91.4021 61.726C91.7755 61.4833 92.0648 61.152 92.2701 60.732C92.4755 60.3027 92.5781 59.8127 92.5781 59.262C92.5781 58.702 92.4755 58.212 92.2701 57.792C92.0648 57.372 91.7755 57.0453 91.4021 56.812C91.0288 56.5693 90.5901 56.448 90.0861 56.448C89.6381 56.448 89.2228 56.5507 88.8401 56.756C88.4575 56.952 88.1495 57.2413 87.9161 57.624C87.6921 57.9973 87.5801 58.45 87.5801 58.982V59.626C87.5801 60.1393 87.6968 60.578 87.9301 60.942C88.1635 61.306 88.4715 61.586 88.8541 61.782C89.2368 61.978 89.6475 62.076 90.0861 62.076ZM99.1085 63.252C98.4552 63.252 97.8812 63.14 97.3865 62.916C96.8918 62.692 96.4718 62.398 96.1265 62.034C95.7905 61.6607 95.5338 61.2453 95.3565 60.788C95.1885 60.3307 95.1045 59.864 95.1045 59.388V59.136C95.1045 58.66 95.1932 58.1933 95.3705 57.736C95.5478 57.2693 95.8092 56.854 96.1545 56.49C96.4998 56.1167 96.9198 55.8227 97.4145 55.608C97.9092 55.384 98.4738 55.272 99.1085 55.272C99.7432 55.272 100.308 55.384 100.802 55.608C101.297 55.8227 101.717 56.1167 102.062 56.49C102.408 56.854 102.669 57.2693 102.846 57.736C103.024 58.1933 103.112 58.66 103.112 59.136V59.388C103.112 59.864 103.024 60.3307 102.846 60.788C102.678 61.2453 102.422 61.6607 102.076 62.034C101.74 62.398 101.325 62.692 100.83 62.916C100.336 63.14 99.7618 63.252 99.1085 63.252ZM99.1085 62.048C99.6685 62.048 100.144 61.9267 100.536 61.684C100.938 61.432 101.241 61.096 101.446 60.676C101.661 60.256 101.768 59.7847 101.768 59.262C101.768 58.73 101.661 58.254 101.446 57.834C101.232 57.414 100.924 57.0827 100.522 56.84C100.13 56.5973 99.6592 56.476 99.1085 56.476C98.5672 56.476 98.0958 56.5973 97.6945 56.84C97.2932 57.0827 96.9852 57.414 96.7705 57.834C96.5558 58.254 96.4485 58.73 96.4485 59.262C96.4485 59.7847 96.5512 60.256 96.7565 60.676C96.9712 61.096 97.2745 61.432 97.6665 61.684C98.0678 61.9267 98.5485 62.048 99.1085 62.048ZM104.845 63V55.524H105.909V58.73H105.741C105.741 57.9927 105.839 57.372 106.035 56.868C106.241 56.3547 106.549 55.9673 106.959 55.706C107.37 55.4353 107.888 55.3 108.513 55.3H108.569C109.512 55.3 110.207 55.594 110.655 56.182C111.113 56.77 111.341 57.6193 111.341 58.73V63H109.997V58.45C109.997 57.8713 109.834 57.4093 109.507 57.064C109.181 56.7093 108.733 56.532 108.163 56.532C107.575 56.532 107.099 56.714 106.735 57.078C106.371 57.442 106.189 57.9273 106.189 58.534V63H104.845ZM115.97 63.224C114.99 63.224 114.23 63.014 113.688 62.594C113.156 62.174 112.881 61.6 112.862 60.872H114.122C114.141 61.1613 114.286 61.4367 114.556 61.698C114.836 61.95 115.308 62.076 115.97 62.076C116.568 62.076 117.025 61.9593 117.342 61.726C117.66 61.4833 117.818 61.1893 117.818 60.844C117.818 60.536 117.702 60.298 117.468 60.13C117.235 59.9527 116.857 59.836 116.334 59.78L115.522 59.696C114.813 59.6213 114.234 59.4113 113.786 59.066C113.338 58.7113 113.114 58.2167 113.114 57.582C113.114 57.106 113.236 56.7 113.478 56.364C113.721 56.0187 114.057 55.7573 114.486 55.58C114.916 55.3933 115.41 55.3 115.97 55.3C116.81 55.3 117.492 55.4867 118.014 55.86C118.537 56.2333 118.808 56.7887 118.826 57.526H117.566C117.557 57.2273 117.417 56.9753 117.146 56.77C116.885 56.5553 116.493 56.448 115.97 56.448C115.448 56.448 115.051 56.5553 114.78 56.77C114.51 56.9847 114.374 57.2553 114.374 57.582C114.374 57.862 114.468 58.086 114.654 58.254C114.85 58.422 115.168 58.5293 115.606 58.576L116.418 58.66C117.221 58.744 117.865 58.968 118.35 59.332C118.836 59.6867 119.078 60.1907 119.078 60.844C119.078 61.3107 118.943 61.726 118.672 62.09C118.411 62.4447 118.047 62.7247 117.58 62.93C117.114 63.126 116.577 63.224 115.97 63.224ZM123.924 63.252C123.271 63.252 122.706 63.14 122.23 62.916C121.754 62.692 121.367 62.398 121.068 62.034C120.77 61.6607 120.546 61.2453 120.396 60.788C120.256 60.3307 120.186 59.864 120.186 59.388V59.136C120.186 58.6507 120.256 58.1793 120.396 57.722C120.546 57.2647 120.77 56.854 121.068 56.49C121.367 56.1167 121.745 55.8227 122.202 55.608C122.669 55.384 123.215 55.272 123.84 55.272C124.652 55.272 125.32 55.4493 125.842 55.804C126.374 56.1493 126.766 56.5973 127.018 57.148C127.28 57.6987 127.41 58.2867 127.41 58.912V59.514H120.774V58.506H126.43L126.122 59.052C126.122 58.52 126.038 58.0627 125.87 57.68C125.702 57.288 125.45 56.9847 125.114 56.77C124.778 56.5553 124.354 56.448 123.84 56.448C123.308 56.448 122.865 56.5693 122.51 56.812C122.165 57.0547 121.904 57.386 121.726 57.806C121.558 58.226 121.474 58.7113 121.474 59.262C121.474 59.794 121.558 60.2747 121.726 60.704C121.904 61.124 122.174 61.46 122.538 61.712C122.902 61.9547 123.364 62.076 123.924 62.076C124.512 62.076 124.988 61.9453 125.352 61.684C125.726 61.4227 125.95 61.1193 126.024 60.774H127.284C127.182 61.2873 126.976 61.7307 126.668 62.104C126.36 62.4773 125.973 62.762 125.506 62.958C125.04 63.154 124.512 63.252 123.924 63.252Z" fill="white" fill-opacity="0.5"/>
<defs>
<radialGradient id="paint0_radial_1194_4187" cx="0" cy="0" r="1" gradientUnits="userSpaceOnUse" gradientTransform="translate(81) rotate(90) scale(92 81)">
<stop stop-color="white"/>
<stop offset="1" stop-color="white" stop-opacity="0"/>
</radialGradient>
<radialGradient id="paint1_radial_1194_4187" cx="0" cy="0" r="1" gradientUnits="userSpaceOnUse" gradientTransform="translate(81) rotate(90) scale(68.1154 75.1824)">
<stop stop-color="white"/>
<stop offset="1" stop-color="white" stop-opacity="0"/>
</radialGradient>
<linearGradient id="paint2_linear_1194_4187" x1="81" y1="24" x2="81" y2="48" gradientUnits="userSpaceOnUse">
<stop offset="0.0885417" stop-color="white" stop-opacity="0.72"/>
<stop offset="1" stop-color="white"/>
</linearGradient>
</defs>
</svg>
