<svg xmlns="http://www.w3.org/2000/svg" version="1.1" xmlns:xlink="http://www.w3.org/1999/xlink" width="1000" height="1000"><g clip-path="url(#SvgjsClipPath1207)"><rect width="1000" height="1000" fill="#602a9a"></rect><g transform="matrix(21.62162162162162,0,0,21.62162162162162,100,110.81081081081084)"><svg xmlns="http://www.w3.org/2000/svg" version="1.1" xmlns:xlink="http://www.w3.org/1999/xlink" width="37" height="36"><svg width="37" height="36" viewBox="0 0 37 36" fill="none" xmlns="http://www.w3.org/2000/svg">
<g clip-path="url(#clip0_1625_300)">
<path fill-rule="evenodd" clip-rule="evenodd" d="M16.6155 14.1009L5.80746 28.6194C5.05817 29.6257 5.50208 30.7776 6.59375 31.4135C7.41702 31.8931 8.41188 31.9449 9.2934 31.5914L11.4146 30.7421C15.9119 28.9406 20.9043 28.9406 25.4024 30.7421L27.5236 31.5914C28.4051 31.9449 29.4007 31.8923 30.2232 31.4135C31.3149 30.7776 31.7588 29.6257 31.0095 28.6194L20.2014 14.1009C20.059 13.91 19.8661 13.7393 19.6229 13.6107C18.9051 13.2313 17.9118 13.2313 17.194 13.6107C16.9516 13.7385 16.758 13.9092 16.6155 14.1009Z" fill="white"></path>
<path fill-rule="evenodd" clip-rule="evenodd" d="M25.9887 8.52664C22.2549 3.21768 14.5612 3.21768 10.8274 8.52664L2.80396 19.9357C1.76424 21.4144 2.40963 24.1922 3.79252 24.1922C4.14827 24.1922 4.49301 23.9867 4.76455 23.6122L14.0284 10.824C16.2117 7.80993 20.6044 7.80993 22.7885 10.824L32.0523 23.6122C32.3231 23.9867 32.6678 24.1922 33.0244 24.1922C34.4072 24.1922 35.0526 21.4144 34.0129 19.9357L25.9895 8.52664H25.9887Z" fill="white"></path>
</g>
<defs>
<clipPath id="clip0_1625_300">
<rect width="32.2353" height="27.276" fill="white" transform="translate(2.29083 4.54517)"></rect>
</clipPath>
<clipPath id="SvgjsClipPath1207"><rect width="1000" height="1000" x="0" y="0" rx="350" ry="350"></rect></clipPath></defs>
</svg></svg></g></g></svg>