<svg width="20" height="21" viewBox="0 0 20 21" fill="none" xmlns="http://www.w3.org/2000/svg">
<path d="M10 2.84326C5.85625 2.84326 2.5 6.19951 2.5 10.3433C2.49915 11.9177 2.99411 13.4525 3.91466 14.7298C4.83521 16.0071 6.13461 16.9621 7.6285 17.4593C8.0035 17.5245 8.14375 17.2995 8.14375 17.1023C8.14375 16.9245 8.134 16.3343 8.134 15.7058C6.25 16.053 5.7625 15.2468 5.6125 14.8245C5.52775 14.6085 5.1625 13.9433 4.84375 13.7648C4.58125 13.6245 4.20625 13.2773 4.834 13.2683C5.425 13.2585 5.8465 13.812 5.9875 14.037C6.6625 15.171 7.741 14.8523 8.1715 14.6558C8.2375 14.1683 8.434 13.8405 8.65 13.653C6.98125 13.4655 5.2375 12.8183 5.2375 9.94951C5.2375 9.13351 5.52775 8.45926 6.00625 7.93351C5.93125 7.74601 5.66875 6.97726 6.08125 5.94601C6.08125 5.94601 6.709 5.74951 8.14375 6.71551C8.7543 6.54606 9.38513 6.46077 10.0188 6.46201C10.6563 6.46201 11.2938 6.54601 11.8938 6.71476C13.3278 5.73976 13.9563 5.94676 13.9563 5.94676C14.3688 6.97801 14.1063 7.74676 14.0313 7.93426C14.509 8.45926 14.8 9.12451 14.8 9.94951C14.8 12.828 13.0473 13.4655 11.3785 13.653C11.65 13.887 11.8848 14.337 11.8848 15.0405C11.8848 16.0433 11.875 16.8495 11.875 17.103C11.875 17.2995 12.016 17.5335 12.391 17.4585C13.8798 16.9559 15.1734 15.999 16.0899 14.7226C17.0064 13.4462 17.4996 11.9146 17.5 10.3433C17.5 6.19951 14.1438 2.84326 10 2.84326Z" fill="white"/>
</svg>
