<svg width="20" height="21" viewBox="0 0 20 21" fill="none" xmlns="http://www.w3.org/2000/svg">
<path d="M17.6215 5.58521C17.0489 5.83848 16.4417 6.00481 15.82 6.07871C16.4753 5.68678 16.9658 5.06997 17.2 4.34321C16.585 4.70921 15.9107 4.96571 15.208 5.10446C14.7359 4.59939 14.1102 4.26443 13.4282 4.15165C12.7461 4.03886 12.0459 4.15457 11.4364 4.4808C10.8269 4.80702 10.3423 5.32547 10.0578 5.95555C9.77336 6.58563 9.70504 7.29204 9.86348 7.96496C8.61631 7.90245 7.39623 7.57835 6.28244 7.0137C5.16866 6.44906 4.18607 5.65649 3.39848 4.68746C3.1197 5.16629 2.97319 5.71063 2.97398 6.26471C2.97398 7.35221 3.52748 8.31296 4.36898 8.87546C3.87099 8.85978 3.38395 8.72529 2.94848 8.48321V8.52221C2.94863 9.24648 3.19926 9.94842 3.65786 10.509C4.11647 11.0696 4.75484 11.4543 5.46473 11.598C5.00244 11.7232 4.51771 11.7417 4.04723 11.652C4.24738 12.2754 4.63748 12.8206 5.16292 13.2113C5.68836 13.602 6.32282 13.8186 6.97748 13.8307C6.32684 14.3417 5.58186 14.7194 4.78514 14.9423C3.98842 15.1652 3.15557 15.2289 2.33423 15.1297C3.768 16.0518 5.43705 16.5413 7.14173 16.5397C12.9115 16.5397 16.0667 11.76 16.0667 7.61471C16.0667 7.47971 16.063 7.34321 16.057 7.20971C16.6711 6.76583 17.2012 6.21597 17.6222 5.58596L17.6215 5.58521Z" fill="white"/>
</svg>
