<svg width="20" height="21" viewBox="0 0 20 21" fill="none" xmlns="http://www.w3.org/2000/svg">
<path d="M8.557 9.59326C9.007 9.59326 9.3715 9.93076 9.36325 10.3433C9.36325 10.7558 9.00775 11.0933 8.557 11.0933C8.1145 11.0933 7.75 10.7558 7.75 10.3433C7.75 9.93076 8.10625 9.59326 8.557 9.59326ZM11.443 9.59326C11.8938 9.59326 12.25 9.93076 12.25 10.3433C12.25 10.7558 11.8938 11.0933 11.443 11.0933C11.0005 11.0933 10.6368 10.7558 10.6368 10.3433C10.6368 9.93076 10.9922 9.59326 11.443 9.59326ZM15.1683 2.84326C16.0405 2.84326 16.75 3.56776 16.75 4.46551V18.5933L15.0917 17.097L14.158 16.215L13.1702 15.2775L13.5798 16.7348H4.83175C3.9595 16.7348 3.25 16.0103 3.25 15.1125V4.46551C3.25 3.56776 3.9595 2.84326 4.83175 2.84326H15.1675H15.1683ZM12.1908 13.128C13.8955 13.0733 14.5518 11.931 14.5518 11.931C14.5518 9.39526 13.4403 7.33951 13.4403 7.33951C12.3302 6.48976 11.2727 6.51301 11.2727 6.51301L11.1648 6.63901C12.4765 7.04851 13.0855 7.63951 13.0855 7.63951C12.3693 7.236 11.58 6.97901 10.7635 6.88351C10.2456 6.82501 9.72245 6.83005 9.20575 6.89851C9.15925 6.89851 9.12025 6.90676 9.0745 6.91426C8.8045 6.93826 8.14825 7.04026 7.32325 7.41076C7.03825 7.54426 6.868 7.63951 6.868 7.63951C6.868 7.63951 7.5085 7.01701 8.89675 6.60751L8.8195 6.51301C8.8195 6.51301 7.76275 6.48976 6.652 7.34026C6.652 7.34026 5.54125 9.39526 5.54125 11.931C5.54125 11.931 6.18925 13.0725 7.894 13.128C7.894 13.128 8.179 12.774 8.4115 12.4748C7.43125 12.1748 7.0615 11.5448 7.0615 11.5448C7.0615 11.5448 7.138 11.6003 7.27675 11.679C7.28425 11.6865 7.29175 11.6948 7.3075 11.7023C7.33075 11.7188 7.354 11.7263 7.37725 11.742C7.57 11.8523 7.76275 11.9385 7.93975 12.0098C8.25625 12.1358 8.63425 12.2618 9.0745 12.3488C9.73399 12.478 10.4121 12.4806 11.0725 12.3563C11.4572 12.2876 11.8325 12.1741 12.1908 12.018C12.4607 11.9153 12.7615 11.7653 13.078 11.553C13.078 11.553 12.6925 12.1988 11.6815 12.4905C11.9132 12.7898 12.1915 13.128 12.1915 13.128H12.1908Z" fill="white"/>
</svg>
