<svg width="20" height="21" viewBox="0 0 20 21" fill="none" xmlns="http://www.w3.org/2000/svg">
<path d="M14.7512 15.0975H12.7525V11.9648C12.7525 11.2178 12.7375 10.2563 11.71 10.2563C10.6682 10.2563 10.5092 11.0693 10.5092 11.91V15.0975H8.50975V8.65576H10.4297V9.53326H10.456C10.7245 9.02776 11.377 8.49301 12.352 8.49301C14.377 8.49301 14.752 9.82651 14.752 11.5613V15.0975H14.7512ZM6.25225 7.77451C6.09967 7.77471 5.94854 7.74479 5.80755 7.68647C5.66655 7.62814 5.53845 7.54257 5.43059 7.43464C5.32273 7.32671 5.23724 7.19856 5.17901 7.05752C5.12078 6.91649 5.09095 6.76534 5.09125 6.61276C5.0914 6.38314 5.15963 6.15871 5.28733 5.96787C5.41503 5.77703 5.59645 5.62834 5.80865 5.5406C6.02085 5.45286 6.2543 5.43002 6.47949 5.47497C6.70467 5.51991 6.91147 5.63062 7.07373 5.79309C7.23599 5.95557 7.34644 6.16251 7.39109 6.38775C7.43574 6.61299 7.4126 6.84641 7.32459 7.0585C7.23658 7.27059 7.08765 7.45182 6.89664 7.57926C6.70564 7.70671 6.48112 7.77466 6.2515 7.77451H6.25225ZM7.25425 15.0975H5.2495V8.65576H7.255V15.0975H7.25425ZM15.7525 3.59326H4.24675C3.69475 3.59326 3.25 4.02826 3.25 4.56601V16.1205C3.25 16.6583 3.6955 17.0933 4.246 17.0933H15.7495C16.3 17.0933 16.75 16.6583 16.75 16.1205V4.56601C16.75 4.02826 16.3 3.59326 15.7495 3.59326H15.7518H15.7525Z" fill="white"/>
</svg>
