<svg width="95" height="22" viewBox="0 0 95 22" fill="none" xmlns="http://www.w3.org/2000/svg">
<path d="M90.4086 21.435V0.48999H94.5V21.435H90.4086Z" fill="white"/>
<path d="M65.9918 21.435L73.1661 0.48999H79.8506L87.2266 21.435H83.02L76.7677 3.2731L78.2371 3.90432H74.6355L76.1338 3.2731L70.0831 21.435H65.9918ZM71.0052 15.8688L72.3017 12.4258H80.8302L82.098 15.8688H71.0052Z" fill="white"/>
<path d="M41.0319 21.4349L43.9996 6.37168H48.6096L52.0383 21.4349H48.869L45.3826 6.45776H47.0538L43.9708 21.4349H41.0319ZM39.8506 21.4349L39.8218 18.164H43.02V21.4349H39.8506ZM38.2371 21.4349L33.9728 5.85522H37.8625L41.9251 21.4349H38.2371ZM49.8774 21.4349V18.164H53.0756L53.0468 21.4349H49.8774ZM51.1452 21.4349L54.7467 5.85522H58.3771L54.6027 21.4349H51.1452Z" fill="white"/>
<path d="M28.4104 21.4349V16.8156H27.7477V11.6797C27.7477 10.7807 27.5268 10.1112 27.085 9.67128C26.6433 9.23134 25.9614 9.01137 25.0394 9.01137C24.5591 9.01137 23.9829 9.02093 23.3106 9.04006C22.6383 9.05919 21.9564 9.08788 21.2649 9.12614C20.5926 9.14527 19.9875 9.17396 19.4497 9.21221V5.82657C19.8915 5.78832 20.3909 5.75006 20.948 5.71181C21.505 5.67355 22.0717 5.65442 22.6479 5.65442C23.2434 5.6353 23.8004 5.62573 24.319 5.62573C25.9325 5.62573 27.2675 5.83614 28.324 6.25695C29.3997 6.67777 30.2064 7.33768 30.7442 8.23669C31.3013 9.1357 31.5798 10.3121 31.5798 11.7658V21.4349H28.4104ZM23.3682 21.8366C22.2349 21.8366 21.2361 21.6358 20.3717 21.2341C19.5265 20.8324 18.8639 20.2586 18.3836 19.5126C17.9226 18.7666 17.6921 17.8676 17.6921 16.8156C17.6921 15.6679 17.9707 14.7306 18.5277 14.0038C19.104 13.2769 19.9011 12.7317 20.9191 12.3683C21.9564 12.0049 23.1665 11.8232 24.5495 11.8232H28.1799V14.2046H24.4919C23.5699 14.2046 22.8592 14.4341 22.3598 14.8932C21.8796 15.3331 21.6395 15.907 21.6395 16.6147C21.6395 17.3224 21.8796 17.8963 22.3598 18.3362C22.8592 18.7762 23.5699 18.9961 24.4919 18.9961C25.049 18.9961 25.558 18.9005 26.019 18.7092C26.4992 18.4988 26.893 18.1545 27.2003 17.6763C27.5268 17.179 27.7093 16.5095 27.7477 15.6679L28.7274 16.7869C28.6313 17.8772 28.3624 18.7953 27.9206 19.5413C27.498 20.2873 26.9026 20.8611 26.1342 21.2628C25.3851 21.6453 24.4631 21.8366 23.3682 21.8366Z" fill="white"/>
<path d="M3.99555 15.008V11.4789H8.08694C8.9129 11.4789 9.6044 11.3163 10.1614 10.9911C10.7377 10.6659 11.1699 10.2164 11.458 9.64259C11.7653 9.06876 11.919 8.40884 11.919 7.66286C11.919 6.91687 11.7653 6.25696 11.458 5.68312C11.1699 5.10928 10.7377 4.66934 10.1614 4.36329C9.6044 4.03812 8.9129 3.87553 8.08694 3.87553H3.99555V0.346436H7.74118C9.50836 0.346436 11.0066 0.633354 12.2359 1.20719C13.4845 1.78103 14.4353 2.60353 15.0884 3.67469C15.7415 4.72672 16.068 5.9796 16.068 7.43332V7.89239C16.068 9.34611 15.7415 10.6086 15.0884 11.6797C14.4353 12.7317 13.4845 13.5542 12.2359 14.1472C11.0066 14.7211 9.50836 15.008 7.74118 15.008H3.99555ZM0.480408 21.4349V0.346436H4.5718V21.4349H0.480408Z" fill="white"/>
</svg>
