<svg width="138" height="36" viewBox="0 0 138 36" fill="none" xmlns="http://www.w3.org/2000/svg">
<g clip-path="url(#clip0_1625_299)">
<path fill-rule="evenodd" clip-rule="evenodd" d="M16.6155 14.1009L5.80746 28.6194C5.05817 29.6257 5.50208 30.7776 6.59375 31.4135C7.41702 31.8931 8.41188 31.9449 9.2934 31.5914L11.4146 30.7421C15.9119 28.9406 20.9043 28.9406 25.4024 30.7421L27.5236 31.5914C28.4051 31.9449 29.4007 31.8923 30.2232 31.4135C31.3149 30.7776 31.7588 29.6257 31.0095 28.6194L20.2014 14.1009C20.059 13.91 19.8661 13.7393 19.6229 13.6107C18.9051 13.2313 17.9118 13.2313 17.194 13.6107C16.9516 13.7385 16.758 13.9092 16.6155 14.1009Z" fill="white"/>
<path fill-rule="evenodd" clip-rule="evenodd" d="M25.9887 8.52664C22.2549 3.21768 14.5612 3.21768 10.8274 8.52664L2.80396 19.9357C1.76424 21.4144 2.40963 24.1922 3.79252 24.1922C4.14827 24.1922 4.49301 23.9867 4.76455 23.6122L14.0284 10.824C16.2117 7.80993 20.6044 7.80993 22.7885 10.824L32.0523 23.6122C32.3231 23.9867 32.6678 24.1922 33.0244 24.1922C34.4072 24.1922 35.0526 21.4144 34.0129 19.9357L25.9895 8.52664H25.9887Z" fill="white"/>
</g>
<path d="M133.409 28.435V7.48999H137.5V28.435H133.409Z" fill="white"/>
<path d="M108.992 28.435L116.166 7.48999H122.851L130.227 28.435H126.02L119.768 10.2731L121.237 10.9043H117.636L119.134 10.2731L113.083 28.435H108.992ZM114.005 22.8688L115.302 19.4258H123.83L125.098 22.8688H114.005Z" fill="white"/>
<path d="M84.0319 28.4349L86.9996 13.3717H91.6096L95.0383 28.4349H91.869L88.3826 13.4578H90.0538L86.9708 28.4349H84.0319ZM82.8506 28.4349L82.8218 25.164H86.02V28.4349H82.8506ZM81.2371 28.4349L76.9728 12.8552H80.8625L84.9251 28.4349H81.2371ZM92.8774 28.4349V25.164H96.0756L96.0468 28.4349H92.8774ZM94.1452 28.4349L97.7467 12.8552H101.377L97.6027 28.4349H94.1452Z" fill="white"/>
<path d="M71.4104 28.4349V23.8156H70.7477V18.6797C70.7477 17.7807 70.5268 17.1112 70.085 16.6713C69.6433 16.2313 68.9614 16.0114 68.0394 16.0114C67.5591 16.0114 66.9829 16.0209 66.3106 16.0401C65.6383 16.0592 64.9564 16.0879 64.2649 16.1261C63.5926 16.1453 62.9875 16.174 62.4497 16.2122V12.8266C62.8915 12.7883 63.3909 12.7501 63.948 12.7118C64.505 12.6736 65.0717 12.6544 65.6479 12.6544C66.2434 12.6353 66.8004 12.6257 67.319 12.6257C68.9325 12.6257 70.2675 12.8361 71.324 13.257C72.3997 13.6778 73.2064 14.3377 73.7442 15.2367C74.3013 16.1357 74.5798 17.3121 74.5798 18.7658V28.4349H71.4104ZM66.3682 28.8366C65.2349 28.8366 64.2361 28.6358 63.3717 28.2341C62.5265 27.8324 61.8639 27.2586 61.3836 26.5126C60.9226 25.7666 60.6921 24.8676 60.6921 23.8156C60.6921 22.6679 60.9707 21.7306 61.5277 21.0038C62.104 20.2769 62.9011 19.7317 63.9191 19.3683C64.9564 19.0049 66.1665 18.8232 67.5495 18.8232H71.1799V21.2046H67.4919C66.5699 21.2046 65.8592 21.4341 65.3598 21.8932C64.8796 22.3331 64.6395 22.907 64.6395 23.6147C64.6395 24.3224 64.8796 24.8963 65.3598 25.3362C65.8592 25.7762 66.5699 25.9961 67.4919 25.9961C68.049 25.9961 68.558 25.9005 69.019 25.7092C69.4992 25.4988 69.893 25.1545 70.2003 24.6763C70.5268 24.179 70.7093 23.5095 70.7477 22.6679L71.7274 23.7869C71.6313 24.8772 71.3624 25.7953 70.9206 26.5413C70.498 27.2873 69.9026 27.8611 69.1342 28.2628C68.3851 28.6453 67.4631 28.8366 66.3682 28.8366Z" fill="white"/>
<path d="M46.9955 22.008V18.4789H51.0869C51.9129 18.4789 52.6044 18.3163 53.1614 17.9911C53.7377 17.6659 54.1699 17.2164 54.458 16.6426C54.7653 16.0688 54.919 15.4088 54.919 14.6629C54.919 13.9169 54.7653 13.257 54.458 12.6831C54.1699 12.1093 53.7377 11.6693 53.1614 11.3633C52.6044 11.0381 51.9129 10.8755 51.0869 10.8755H46.9955V7.34644H50.7412C52.5084 7.34644 54.0066 7.63335 55.2359 8.20719C56.4845 8.78103 57.4353 9.60353 58.0884 10.6747C58.7415 11.7267 59.068 12.9796 59.068 14.4333V14.8924C59.068 16.3461 58.7415 17.6086 58.0884 18.6797C57.4353 19.7317 56.4845 20.5542 55.2359 21.1472C54.0066 21.7211 52.5084 22.008 50.7412 22.008H46.9955ZM43.4804 28.4349V7.34644H47.5718V28.4349H43.4804Z" fill="white"/>
<defs>
<clipPath id="clip0_1625_299">
<rect width="32.2353" height="27.276" fill="white" transform="translate(2.29083 4.54517)"/>
</clipPath>
</defs>
</svg>
