<svg width="32" height="28" viewBox="0 0 32 28" fill="none" xmlns="http://www.w3.org/2000/svg">
<path d="M12.4395 10.3818V8.76476C12.6043 8.75478 12.7692 8.7448 12.9341 8.7448C17.5098 8.60505 20.5086 12.5578 20.5086 12.5578C20.5086 12.5578 17.2727 16.9098 13.7998 16.9098C13.336 16.9098 12.8826 16.8399 12.4498 16.7002V11.7892C14.2326 11.9988 14.5933 12.7574 15.6548 14.4843L18.0353 12.5478C18.0353 12.5478 16.2937 10.3419 13.3669 10.3419C13.0578 10.3319 12.7486 10.3518 12.4395 10.3818ZM12.4395 5.03162V7.44718L12.9341 7.41724C19.2926 7.20762 23.4457 12.468 23.4457 12.468C23.4457 12.468 18.6846 18.0777 13.7276 18.0777C13.2948 18.0777 12.8723 18.0377 12.4498 17.9679V19.4651C12.8001 19.505 13.1608 19.535 13.5112 19.535C18.1281 19.535 21.4671 17.2492 24.703 14.5541C25.2389 14.9734 27.4339 15.9815 27.8874 16.4207C24.8163 18.9161 17.654 20.9224 13.5937 20.9224C13.2021 20.9224 12.8311 20.9025 12.4601 20.8625V22.9687H30V5.03162L12.4395 5.03162ZM12.4395 16.7002V17.9778C8.17299 17.2392 6.98785 12.9371 6.98785 12.9371C6.98785 12.9371 9.03865 10.7411 12.4395 10.3818V11.7792H12.4291C10.6463 11.5696 9.24476 13.1866 9.24476 13.1866C9.24476 13.1866 10.0383 15.9116 12.4395 16.7002ZM4.86492 12.7574C4.86492 12.7574 7.38977 9.14406 12.4498 8.76476V7.44718C6.84358 7.88637 2 12.4779 2 12.4779C2 12.4779 4.74126 20.1638 12.4395 20.8625V19.4651C6.79205 18.7864 4.86492 12.7574 4.86492 12.7574Z" fill="#76B900"/>
</svg>
