<svg width="435" height="350" viewBox="0 0 435 350" fill="none" xmlns="http://www.w3.org/2000/svg">
<path d="M215.935 256.657C165.846 206.28 165.846 124.603 215.935 74.2256C266.025 23.8485 347.236 23.8485 397.325 74.2256C447.414 124.603 447.414 206.28 397.325 256.657C347.236 307.035 266.025 307.035 215.935 256.657Z" fill="url(#paint0_radial_3001_4084)" style="mix-blend-mode:screen"/>
<path d="M17.3169 317.002C-5.57871 293.975 -5.57875 256.64 17.3169 233.613C40.2125 210.586 77.3336 210.586 100.229 233.613C123.125 256.64 123.125 293.975 100.229 317.002C77.3336 340.029 40.2125 340.029 17.3169 317.002Z" fill="url(#paint1_radial_3001_4084)" style="mix-blend-mode:screen"/>
<defs>
<radialGradient id="paint0_radial_3001_4084" cx="0" cy="0" r="1" gradientUnits="userSpaceOnUse" gradientTransform="translate(399.705 317.181) rotate(169.109) scale(338.718 340.527)">
<stop offset="0.53"/>
<stop offset="0.65" stop-color="#000001"/>
<stop offset="0.78" stop-color="#380272"/>
<stop offset="0.79" stop-color="#420C7C"/>
<stop offset="0.81" stop-color="#562090"/>
<stop offset="0.82" stop-color="#602A9A"/>
<stop offset="0.83" stop-color="#6A34A4"/>
<stop offset="0.84" stop-color="#7E48B8"/>
<stop offset="0.9" stop-color="#EDEAF8"/>
<stop offset="1" stop-color="white"/>
</radialGradient>
<radialGradient id="paint1_radial_3001_4084" cx="0" cy="0" r="1" gradientUnits="userSpaceOnUse" gradientTransform="translate(101.317 344.667) rotate(169.109) scale(154.827 155.653)">
<stop offset="0.53"/>
<stop offset="0.65" stop-color="#000001"/>
<stop offset="0.78" stop-color="#380272"/>
<stop offset="0.79" stop-color="#420C7C"/>
<stop offset="0.81" stop-color="#562090"/>
<stop offset="0.82" stop-color="#602A9A"/>
<stop offset="0.83" stop-color="#6A34A4"/>
<stop offset="0.84" stop-color="#7E48B8"/>
<stop offset="0.9" stop-color="#EDEAF8"/>
<stop offset="1" stop-color="white"/>
</radialGradient>
</defs>
</svg>
