<svg width="21" height="20" viewBox="0 0 21 20" fill="none" xmlns="http://www.w3.org/2000/svg">
<g clip-path="url(#clip0_3001_2482)">
<path fill-rule="evenodd" clip-rule="evenodd" d="M15.6375 2.30412L15.85 2.33079C16.4116 2.40829 17.155 2.51246 17.5758 2.93412C17.9208 3.27829 18.0533 3.83829 18.1325 4.33829L18.1791 4.65996C18.2841 5.41829 18.3116 6.41162 18.1325 7.51496C17.7791 9.69246 16.62 12.2908 13.7091 14.3025C13.6933 14.4591 13.6925 14.6175 13.6958 14.7758L13.7041 15.0125C13.7175 15.3766 13.7308 15.74 13.6291 16.0941C13.4708 16.6441 12.9066 17.0066 12.3791 17.2666L12.1208 17.3891L11.7875 17.5358C11.1641 17.8008 10.3225 18.0725 9.79498 17.5441C9.47831 17.2283 9.34831 16.765 9.24248 16.3041L9.20331 16.1316C9.15919 15.9138 9.10355 15.6985 9.03665 15.4866C8.99498 15.365 8.94998 15.2408 8.90165 15.1158C8.84845 15.1811 8.79199 15.2437 8.73248 15.3033C8.44498 15.5908 8.01581 15.7916 7.66248 15.9325C7.27665 16.085 6.83998 16.2183 6.43581 16.3283L6.22831 16.3833L5.83081 16.4825L5.47081 16.5658L5.03998 16.6575L4.77081 16.71C4.63657 16.7348 4.4983 16.7266 4.36792 16.6861C4.23754 16.6456 4.11897 16.574 4.02243 16.4775C3.92589 16.381 3.85429 16.2624 3.81379 16.132C3.7733 16.0016 3.76512 15.8634 3.78998 15.7291L3.86165 15.37L3.98998 14.7883L4.09331 14.3633L4.17165 14.0633C4.28165 13.66 4.41498 13.2233 4.56831 12.8383C4.70831 12.4841 4.90915 12.055 5.19665 11.7675L5.26331 11.7033L5.20998 11.6816C5.06756 11.6275 4.92331 11.5783 4.77748 11.5341L4.54665 11.4633C3.96831 11.2883 3.34998 11.1 2.96581 10.715C2.49915 10.2491 2.65665 9.53996 2.88165 8.94996L2.97331 8.72162L3.12081 8.38829L3.24331 8.12996C3.50331 7.60329 3.86581 7.03912 4.41581 6.88079C4.70748 6.79746 5.01081 6.79246 5.31581 6.80079L5.49915 6.80662C5.73748 6.81496 5.97498 6.82412 6.20748 6.80162C8.21915 3.88996 10.8175 2.73079 12.995 2.37746C13.8685 2.23419 14.7574 2.20952 15.6375 2.30412ZM7.46081 12.8666C7.32966 12.7695 7.17291 12.7131 7.00998 12.7042C6.84704 12.6953 6.68508 12.7344 6.54415 12.8166L6.45248 12.8783L6.37498 12.9475L6.27081 13.0791C6.05415 13.3925 5.93081 13.8258 5.83498 14.2308L5.74498 14.6208L5.70248 14.7983L5.86165 14.76L6.20998 14.68C6.69165 14.5675 7.22581 14.4216 7.55415 14.1258C7.6969 13.9831 7.78303 13.7935 7.79651 13.5921C7.81 13.3907 7.74994 13.1912 7.62748 13.0308L7.55914 12.9525L7.53914 12.9333L7.46081 12.8666ZM13.4466 7.05496C13.2919 6.90016 13.1082 6.77736 12.906 6.69356C12.7038 6.60977 12.4871 6.56662 12.2682 6.56658C12.0493 6.56654 11.8326 6.60961 11.6303 6.69334C11.4281 6.77706 11.2444 6.8998 11.0896 7.05454C10.9348 7.20928 10.812 7.393 10.7282 7.5952C10.6444 7.7974 10.6012 8.01412 10.6012 8.233C10.6011 8.45187 10.6442 8.66861 10.7279 8.87084C10.8117 9.07307 10.9344 9.25683 11.0891 9.41162C11.4017 9.72425 11.8256 9.89992 12.2676 9.9C12.7096 9.90008 13.1336 9.72455 13.4462 9.41204C13.7589 9.09953 13.9345 8.67562 13.9346 8.23358C13.9347 7.79155 13.7592 7.36758 13.4466 7.05496Z" fill="white"/>
</g>
<defs>
<clipPath id="clip0_3001_2482">
<rect width="20" height="20" fill="white" transform="translate(0.5)"/>
</clipPath>
</defs>
</svg>
